<svg width="451" height="550" viewBox="0 0 451 550" fill="none" xmlns="http://www.w3.org/2000/svg">
<path d="M1 0H451V550H1V0Z" fill="url(#paint0_linear_0_1)" fill-opacity="0.95"/>
<path d="M451 0H229.437C203.83 73.3055 260.779 69.967 292.455 59.1345C313.627 49.19 348.471 46.029 318.462 112.942C288.454 179.854 346.637 195.517 379.48 194.984C396.318 196.05 425.893 207.983 409.488 247.193C393.083 286.403 430.327 299.402 451 301V0Z" fill="url(#paint1_linear_0_1)"/>
<path d="M0.472335 549.366L0.565227 175.741C81.741 147.467 91.4219 235.082 82.2588 279.08C80.8418 296.76 63.7633 325.753 118.676 325.849C175.041 325.948 188.2 391.704 174.863 427.431C171.923 435.306 164.962 458.91 197.422 473.022C232.046 488.074 237.346 529.914 225.008 549.759L0.472335 549.366Z" fill="url(#paint2_linear_0_1)"/>
<path d="M38.5 67C38.5 53.469 49.469 42.5 63 42.5C76.531 42.5 87.5 53.469 87.5 67C87.5 80.531 76.531 91.5 63 91.5C49.469 91.5 38.5 80.531 38.5 67Z" stroke="white"/>
<g filter="url(#filter0_d_0_1)">
<path d="M50.8097 81L45.1591 62.4545H48.1534L52.1619 76.6534H52.3551L56.3153 62.4545H59.358L63.2699 76.6051H63.4631L67.4716 62.4545H70.4659L64.8153 81H62.0142L57.9574 66.7528H57.6676L53.6108 81H50.8097Z" fill="white"/>
</g>
<g filter="url(#filter1_d_0_1)">
<path d="M58.8352 56.3324V53.3636H79.5625V56.3324H70.8722V81H67.5256V56.3324H58.8352Z" fill="white"/>
</g>
<rect x="185" y="76" width="110" height="110" rx="55" fill="url(#paint3_linear_0_1)"/>
<rect x="185" y="76" width="110" height="110" rx="55" fill="url(#paint4_linear_0_1)" fill-opacity="0.24"/>
<rect x="384" y="483" width="30" height="30" rx="15" fill="url(#paint5_linear_0_1)"/>
<rect x="384" y="483" width="30" height="30" rx="15" fill="url(#paint6_linear_0_1)" fill-opacity="0.2"/>
<path d="M110.428 265L101.957 234.455H106.804L112.755 258.109H113.039L119.228 234.455H124.031L130.22 258.124H130.504L136.44 234.455H141.302L132.816 265H128.177L121.749 242.121H121.51L115.082 265H110.428ZM152.764 265.462C150.507 265.462 148.563 264.98 146.932 264.016C145.312 263.041 144.059 261.674 143.174 259.914C142.299 258.144 141.861 256.071 141.861 253.695C141.861 251.348 142.299 249.28 143.174 247.49C144.059 245.7 145.292 244.303 146.873 243.299C148.464 242.295 150.323 241.793 152.451 241.793C153.743 241.793 154.996 242.006 156.209 242.434C157.422 242.862 158.511 243.533 159.476 244.447C160.44 245.362 161.201 246.55 161.758 248.012C162.314 249.464 162.593 251.229 162.593 253.307V254.888H144.382V251.547H158.223C158.223 250.374 157.984 249.335 157.507 248.43C157.03 247.515 156.358 246.794 155.493 246.267C154.638 245.74 153.634 245.477 152.481 245.477C151.228 245.477 150.134 245.785 149.199 246.401C148.275 247.008 147.559 247.803 147.052 248.788C146.555 249.762 146.306 250.821 146.306 251.964V254.575C146.306 256.106 146.574 257.408 147.111 258.482C147.658 259.556 148.419 260.376 149.393 260.943C150.368 261.5 151.506 261.778 152.809 261.778C153.654 261.778 154.425 261.659 155.121 261.42C155.817 261.172 156.418 260.804 156.925 260.317C157.432 259.83 157.82 259.228 158.089 258.512L162.309 259.273C161.971 260.516 161.365 261.604 160.49 262.539C159.625 263.464 158.536 264.185 157.224 264.702C155.921 265.209 154.434 265.462 152.764 265.462ZM172 234.455V265H167.541V234.455H172ZM187.65 265.462C185.432 265.462 183.523 264.96 181.922 263.956C180.331 262.942 179.108 261.545 178.253 259.765C177.398 257.985 176.971 255.947 176.971 253.65C176.971 251.323 177.408 249.27 178.283 247.49C179.158 245.7 180.391 244.303 181.982 243.299C183.573 242.295 185.447 241.793 187.605 241.793C189.345 241.793 190.896 242.116 192.258 242.762C193.621 243.398 194.719 244.293 195.555 245.447C196.4 246.6 196.902 247.947 197.061 249.489H192.721C192.482 248.415 191.935 247.49 191.08 246.714C190.235 245.939 189.101 245.551 187.68 245.551C186.437 245.551 185.348 245.879 184.413 246.536C183.488 247.182 182.768 248.107 182.251 249.31C181.733 250.503 181.475 251.915 181.475 253.545C181.475 255.216 181.729 256.658 182.236 257.871C182.743 259.084 183.459 260.023 184.383 260.69C185.318 261.356 186.417 261.689 187.68 261.689C188.525 261.689 189.29 261.535 189.976 261.227C190.672 260.908 191.254 260.456 191.721 259.869C192.199 259.283 192.532 258.577 192.721 257.751H197.061C196.902 259.233 196.42 260.555 195.614 261.719C194.809 262.882 193.73 263.797 192.378 264.463C191.035 265.129 189.459 265.462 187.65 265.462ZM211.48 265.462C209.332 265.462 207.458 264.97 205.857 263.986C204.256 263.001 203.013 261.624 202.128 259.854C201.243 258.085 200.801 256.016 200.801 253.65C200.801 251.273 201.243 249.195 202.128 247.415C203.013 245.636 204.256 244.254 205.857 243.269C207.458 242.285 209.332 241.793 211.48 241.793C213.627 241.793 215.502 242.285 217.103 243.269C218.703 244.254 219.946 245.636 220.831 247.415C221.716 249.195 222.159 251.273 222.159 253.65C222.159 256.016 221.716 258.085 220.831 259.854C219.946 261.624 218.703 263.001 217.103 263.986C215.502 264.97 213.627 265.462 211.48 265.462ZM211.495 261.719C212.887 261.719 214.04 261.351 214.955 260.615C215.87 259.879 216.546 258.9 216.983 257.677C217.431 256.454 217.654 255.107 217.654 253.635C217.654 252.173 217.431 250.831 216.983 249.608C216.546 248.375 215.87 247.386 214.955 246.64C214.04 245.894 212.887 245.521 211.495 245.521C210.093 245.521 208.929 245.894 208.005 246.64C207.09 247.386 206.409 248.375 205.961 249.608C205.524 250.831 205.305 252.173 205.305 253.635C205.305 255.107 205.524 256.454 205.961 257.677C206.409 258.9 207.09 259.879 208.005 260.615C208.929 261.351 210.093 261.719 211.495 261.719ZM227.137 265V242.091H231.417V245.82H231.7C232.178 244.557 232.958 243.572 234.042 242.866C235.126 242.151 236.423 241.793 237.935 241.793C239.466 241.793 240.749 242.151 241.783 242.866C242.827 243.582 243.597 244.567 244.095 245.82H244.333C244.88 244.597 245.75 243.622 246.943 242.896C248.137 242.161 249.558 241.793 251.209 241.793C253.287 241.793 254.982 242.444 256.295 243.746C257.617 245.049 258.279 247.013 258.279 249.638V265H253.819V250.055C253.819 248.504 253.396 247.381 252.551 246.685C251.706 245.989 250.697 245.641 249.524 245.641C248.072 245.641 246.943 246.088 246.138 246.983C245.333 247.868 244.93 249.006 244.93 250.398V265H240.485V249.772C240.485 248.529 240.097 247.53 239.322 246.774C238.546 246.018 237.537 245.641 236.294 245.641C235.449 245.641 234.669 245.864 233.953 246.312C233.247 246.749 232.675 247.361 232.237 248.146C231.81 248.932 231.596 249.842 231.596 250.876V265H227.137ZM274.129 265.462C271.872 265.462 269.928 264.98 268.298 264.016C266.677 263.041 265.424 261.674 264.539 259.914C263.664 258.144 263.227 256.071 263.227 253.695C263.227 251.348 263.664 249.28 264.539 247.49C265.424 245.7 266.657 244.303 268.238 243.299C269.829 242.295 271.688 241.793 273.816 241.793C275.109 241.793 276.362 242.006 277.575 242.434C278.788 242.862 279.876 243.533 280.841 244.447C281.805 245.362 282.566 246.55 283.123 248.012C283.68 249.464 283.958 251.229 283.958 253.307V254.888H265.747V251.547H279.588C279.588 250.374 279.349 249.335 278.872 248.43C278.395 247.515 277.724 246.794 276.859 246.267C276.004 245.74 274.999 245.477 273.846 245.477C272.593 245.477 271.499 245.785 270.565 246.401C269.64 247.008 268.924 247.803 268.417 248.788C267.92 249.762 267.671 250.821 267.671 251.964V254.575C267.671 256.106 267.94 257.408 268.477 258.482C269.023 259.556 269.784 260.376 270.759 260.943C271.733 261.5 272.871 261.778 274.174 261.778C275.019 261.778 275.79 261.659 276.486 261.42C277.182 261.172 277.783 260.804 278.29 260.317C278.798 259.83 279.185 259.228 279.454 258.512L283.675 259.273C283.337 260.516 282.73 261.604 281.855 262.539C280.99 263.464 279.901 264.185 278.589 264.702C277.286 265.209 275.8 265.462 274.129 265.462Z" fill="white"/>
<path d="M179.203 293V279.909H183.627C184.649 279.909 185.489 280.084 186.145 280.433C186.801 280.778 187.287 281.254 187.603 281.859C187.918 282.464 188.076 283.152 188.076 283.923C188.076 284.695 187.918 285.379 187.603 285.975C187.287 286.572 186.804 287.04 186.152 287.381C185.5 287.718 184.666 287.886 183.652 287.886H180.073V286.455H183.601C184.3 286.455 184.862 286.352 185.289 286.148C185.719 285.943 186.03 285.653 186.222 285.278C186.418 284.899 186.516 284.447 186.516 283.923C186.516 283.399 186.418 282.941 186.222 282.549C186.026 282.157 185.713 281.854 185.282 281.641C184.852 281.424 184.283 281.315 183.576 281.315H180.789V293H179.203ZM185.365 287.119L188.587 293H186.746L183.576 287.119H185.365ZM194.524 293.205C193.578 293.205 192.761 292.996 192.075 292.578C191.394 292.156 190.867 291.568 190.497 290.814C190.13 290.055 189.947 289.173 189.947 288.168C189.947 287.162 190.13 286.276 190.497 285.509C190.867 284.737 191.383 284.136 192.043 283.706C192.708 283.271 193.484 283.054 194.37 283.054C194.881 283.054 195.386 283.139 195.885 283.31C196.384 283.48 196.837 283.757 197.247 284.141C197.656 284.52 197.982 285.023 198.225 285.649C198.467 286.276 198.589 287.047 198.589 287.963V288.602H191.021V287.298H197.055C197.055 286.744 196.944 286.25 196.722 285.815C196.505 285.381 196.194 285.038 195.789 284.786C195.389 284.535 194.916 284.409 194.37 284.409C193.769 284.409 193.249 284.558 192.81 284.857C192.376 285.151 192.041 285.534 191.807 286.007C191.573 286.48 191.455 286.987 191.455 287.528V288.398C191.455 289.139 191.583 289.768 191.839 290.283C192.099 290.795 192.459 291.185 192.919 291.453C193.379 291.717 193.914 291.849 194.524 291.849C194.92 291.849 195.278 291.794 195.597 291.683C195.921 291.568 196.2 291.398 196.435 291.172C196.669 290.942 196.85 290.656 196.978 290.315L198.435 290.724C198.282 291.219 198.024 291.653 197.662 292.028C197.3 292.399 196.852 292.689 196.32 292.898C195.787 293.102 195.188 293.205 194.524 293.205ZM207.838 285.381L206.483 285.764C206.398 285.538 206.272 285.319 206.106 285.106C205.944 284.888 205.722 284.71 205.441 284.569C205.16 284.428 204.8 284.358 204.361 284.358C203.76 284.358 203.259 284.496 202.859 284.773C202.462 285.046 202.264 285.393 202.264 285.815C202.264 286.19 202.401 286.487 202.673 286.704C202.946 286.921 203.372 287.102 203.952 287.247L205.409 287.605C206.287 287.818 206.941 288.144 207.372 288.583C207.802 289.018 208.017 289.578 208.017 290.264C208.017 290.827 207.855 291.33 207.531 291.773C207.212 292.216 206.764 292.565 206.189 292.821C205.614 293.077 204.945 293.205 204.182 293.205C203.18 293.205 202.352 292.987 201.695 292.553C201.039 292.118 200.624 291.483 200.449 290.648L201.881 290.29C202.017 290.818 202.275 291.214 202.654 291.479C203.038 291.743 203.538 291.875 204.156 291.875C204.859 291.875 205.418 291.726 205.831 291.428C206.249 291.125 206.457 290.763 206.457 290.341C206.457 290 206.338 289.714 206.1 289.484C205.861 289.25 205.494 289.075 205 288.96L203.364 288.577C202.465 288.364 201.804 288.033 201.382 287.586C200.965 287.134 200.756 286.57 200.756 285.892C200.756 285.338 200.911 284.848 201.222 284.422C201.538 283.996 201.966 283.661 202.507 283.418C203.053 283.175 203.671 283.054 204.361 283.054C205.332 283.054 206.095 283.267 206.649 283.693C207.207 284.119 207.604 284.682 207.838 285.381ZM214.404 293.205C213.458 293.205 212.642 292.996 211.956 292.578C211.274 292.156 210.748 291.568 210.377 290.814C210.011 290.055 209.828 289.173 209.828 288.168C209.828 287.162 210.011 286.276 210.377 285.509C210.748 284.737 211.264 284.136 211.924 283.706C212.589 283.271 213.365 283.054 214.251 283.054C214.762 283.054 215.267 283.139 215.766 283.31C216.264 283.48 216.718 283.757 217.127 284.141C217.536 284.52 217.862 285.023 218.105 285.649C218.348 286.276 218.47 287.047 218.47 287.963V288.602H210.902V287.298H216.936C216.936 286.744 216.825 286.25 216.603 285.815C216.386 285.381 216.075 285.038 215.67 284.786C215.269 284.535 214.796 284.409 214.251 284.409C213.65 284.409 213.13 284.558 212.691 284.857C212.257 285.151 211.922 285.534 211.688 286.007C211.453 286.48 211.336 286.987 211.336 287.528V288.398C211.336 289.139 211.464 289.768 211.72 290.283C211.98 290.795 212.34 291.185 212.8 291.453C213.26 291.717 213.795 291.849 214.404 291.849C214.801 291.849 215.159 291.794 215.478 291.683C215.802 291.568 216.081 291.398 216.316 291.172C216.55 290.942 216.731 290.656 216.859 290.315L218.316 290.724C218.163 291.219 217.905 291.653 217.543 292.028C217.181 292.399 216.733 292.689 216.201 292.898C215.668 293.102 215.069 293.205 214.404 293.205ZM225.034 283.182V284.46H219.946V283.182H225.034ZM221.429 280.83H222.938V290.188C222.938 290.614 223 290.933 223.123 291.146C223.251 291.355 223.413 291.496 223.609 291.568C223.809 291.636 224.02 291.67 224.242 291.67C224.408 291.67 224.544 291.662 224.651 291.645C224.757 291.624 224.843 291.607 224.907 291.594L225.213 292.949C225.111 292.987 224.968 293.026 224.785 293.064C224.602 293.107 224.37 293.128 224.088 293.128C223.662 293.128 223.245 293.036 222.835 292.853C222.431 292.67 222.094 292.391 221.826 292.016C221.561 291.641 221.429 291.168 221.429 290.597V280.83ZM232.571 293V279.909H236.994C238.021 279.909 238.86 280.094 239.512 280.465C240.169 280.832 240.654 281.328 240.97 281.955C241.285 282.581 241.443 283.28 241.443 284.051C241.443 284.822 241.285 285.523 240.97 286.154C240.659 286.785 240.177 287.288 239.525 287.663C238.873 288.033 238.038 288.219 237.019 288.219H233.849V286.812H236.968C237.671 286.812 238.236 286.691 238.662 286.448C239.088 286.205 239.397 285.877 239.589 285.464C239.785 285.046 239.883 284.575 239.883 284.051C239.883 283.527 239.785 283.058 239.589 282.645C239.397 282.232 239.086 281.908 238.656 281.673C238.225 281.435 237.654 281.315 236.943 281.315H234.156V293H232.571ZM246.681 293.23C246.059 293.23 245.494 293.113 244.987 292.879C244.48 292.64 244.077 292.297 243.779 291.849C243.481 291.398 243.332 290.852 243.332 290.213C243.332 289.651 243.442 289.195 243.664 288.845C243.886 288.491 244.182 288.214 244.552 288.014C244.923 287.814 245.332 287.665 245.78 287.567C246.231 287.464 246.685 287.384 247.141 287.324C247.738 287.247 248.222 287.19 248.592 287.151C248.967 287.109 249.24 287.038 249.41 286.94C249.585 286.842 249.672 286.672 249.672 286.429V286.378C249.672 285.747 249.5 285.257 249.155 284.908C248.814 284.558 248.296 284.384 247.601 284.384C246.881 284.384 246.317 284.541 245.908 284.857C245.498 285.172 245.211 285.509 245.045 285.866L243.613 285.355C243.869 284.759 244.209 284.294 244.636 283.962C245.066 283.625 245.535 283.391 246.042 283.259C246.553 283.122 247.056 283.054 247.55 283.054C247.866 283.054 248.228 283.092 248.637 283.169C249.05 283.241 249.449 283.393 249.832 283.623C250.22 283.853 250.542 284.2 250.797 284.665C251.053 285.129 251.181 285.751 251.181 286.531V293H249.672V291.67H249.596C249.494 291.884 249.323 292.112 249.084 292.354C248.846 292.597 248.528 292.804 248.132 292.974C247.736 293.145 247.252 293.23 246.681 293.23ZM246.911 291.875C247.508 291.875 248.011 291.758 248.42 291.523C248.833 291.289 249.144 290.987 249.353 290.616C249.566 290.245 249.672 289.855 249.672 289.446V288.065C249.609 288.142 249.468 288.212 249.251 288.276C249.038 288.336 248.79 288.389 248.509 288.436C248.232 288.479 247.962 288.517 247.697 288.551C247.437 288.581 247.226 288.607 247.065 288.628C246.672 288.679 246.306 288.762 245.965 288.877C245.628 288.988 245.356 289.156 245.147 289.382C244.942 289.604 244.84 289.906 244.84 290.29C244.84 290.814 245.034 291.21 245.422 291.479C245.814 291.743 246.31 291.875 246.911 291.875ZM260.889 285.381L259.534 285.764C259.449 285.538 259.323 285.319 259.157 285.106C258.995 284.888 258.773 284.71 258.492 284.569C258.211 284.428 257.851 284.358 257.412 284.358C256.811 284.358 256.31 284.496 255.91 284.773C255.513 285.046 255.315 285.393 255.315 285.815C255.315 286.19 255.451 286.487 255.724 286.704C255.997 286.921 256.423 287.102 257.003 287.247L258.46 287.605C259.338 287.818 259.992 288.144 260.422 288.583C260.853 289.018 261.068 289.578 261.068 290.264C261.068 290.827 260.906 291.33 260.582 291.773C260.263 292.216 259.815 292.565 259.24 292.821C258.665 293.077 257.995 293.205 257.233 293.205C256.231 293.205 255.402 292.987 254.746 292.553C254.09 292.118 253.674 291.483 253.5 290.648L254.932 290.29C255.068 290.818 255.326 291.214 255.705 291.479C256.089 291.743 256.589 291.875 257.207 291.875C257.91 291.875 258.468 291.726 258.882 291.428C259.299 291.125 259.508 290.763 259.508 290.341C259.508 290 259.389 289.714 259.15 289.484C258.912 289.25 258.545 289.075 258.051 288.96L256.415 288.577C255.515 288.364 254.855 288.033 254.433 287.586C254.015 287.134 253.807 286.57 253.807 285.892C253.807 285.338 253.962 284.848 254.273 284.422C254.589 283.996 255.017 283.661 255.558 283.418C256.103 283.175 256.721 283.054 257.412 283.054C258.383 283.054 259.146 283.267 259.7 283.693C260.258 284.119 260.655 284.682 260.889 285.381ZM270.293 285.381L268.938 285.764C268.853 285.538 268.727 285.319 268.561 285.106C268.399 284.888 268.177 284.71 267.896 284.569C267.615 284.428 267.255 284.358 266.816 284.358C266.215 284.358 265.714 284.496 265.314 284.773C264.918 285.046 264.719 285.393 264.719 285.815C264.719 286.19 264.856 286.487 265.128 286.704C265.401 286.921 265.827 287.102 266.407 287.247L267.864 287.605C268.742 287.818 269.396 288.144 269.827 288.583C270.257 289.018 270.472 289.578 270.472 290.264C270.472 290.827 270.31 291.33 269.986 291.773C269.667 292.216 269.219 292.565 268.644 292.821C268.069 293.077 267.4 293.205 266.637 293.205C265.636 293.205 264.807 292.987 264.15 292.553C263.494 292.118 263.079 291.483 262.904 290.648L264.336 290.29C264.472 290.818 264.73 291.214 265.109 291.479C265.493 291.743 265.994 291.875 266.611 291.875C267.315 291.875 267.873 291.726 268.286 291.428C268.704 291.125 268.913 290.763 268.913 290.341C268.913 290 268.793 289.714 268.555 289.484C268.316 289.25 267.949 289.075 267.455 288.96L265.819 288.577C264.92 288.364 264.259 288.033 263.837 287.586C263.42 287.134 263.211 286.57 263.211 285.892C263.211 285.338 263.366 284.848 263.677 284.422C263.993 283.996 264.421 283.661 264.962 283.418C265.508 283.175 266.126 283.054 266.816 283.054C267.788 283.054 268.55 283.267 269.104 283.693C269.663 284.119 270.059 284.682 270.293 285.381ZM274.967 293L271.976 283.182H273.561L275.683 290.699H275.786L277.882 283.182H279.493L281.564 290.673H281.666L283.788 283.182H285.374L282.382 293H280.899L278.752 285.457H278.598L276.45 293H274.967ZM291.023 293.205C290.136 293.205 289.359 292.994 288.69 292.572C288.025 292.15 287.505 291.56 287.13 290.801C286.759 290.043 286.574 289.156 286.574 288.142C286.574 287.119 286.759 286.227 287.13 285.464C287.505 284.701 288.025 284.109 288.69 283.687C289.359 283.265 290.136 283.054 291.023 283.054C291.909 283.054 292.685 283.265 293.349 283.687C294.018 284.109 294.538 284.701 294.909 285.464C295.284 286.227 295.472 287.119 295.472 288.142C295.472 289.156 295.284 290.043 294.909 290.801C294.538 291.56 294.018 292.15 293.349 292.572C292.685 292.994 291.909 293.205 291.023 293.205ZM291.023 291.849C291.696 291.849 292.25 291.677 292.685 291.332C293.119 290.987 293.441 290.533 293.65 289.97C293.859 289.408 293.963 288.798 293.963 288.142C293.963 287.486 293.859 286.874 293.65 286.308C293.441 285.741 293.119 285.283 292.685 284.933C292.25 284.584 291.696 284.409 291.023 284.409C290.349 284.409 289.795 284.584 289.361 284.933C288.926 285.283 288.604 285.741 288.396 286.308C288.187 286.874 288.082 287.486 288.082 288.142C288.082 288.798 288.187 289.408 288.396 289.97C288.604 290.533 288.926 290.987 289.361 291.332C289.795 291.677 290.349 291.849 291.023 291.849ZM297.774 293V283.182H299.232V284.665H299.334C299.513 284.179 299.837 283.785 300.305 283.482C300.774 283.18 301.303 283.028 301.891 283.028C302.002 283.028 302.14 283.031 302.306 283.035C302.472 283.039 302.598 283.045 302.683 283.054V284.588C302.632 284.575 302.515 284.556 302.332 284.531C302.153 284.501 301.963 284.486 301.763 284.486C301.286 284.486 300.859 284.586 300.484 284.786C300.114 284.982 299.82 285.255 299.602 285.604C299.389 285.95 299.283 286.344 299.283 286.787V293H297.774ZM307.88 293.205C307.062 293.205 306.34 292.998 305.713 292.585C305.087 292.167 304.597 291.579 304.243 290.82C303.889 290.058 303.712 289.156 303.712 288.116C303.712 287.085 303.889 286.19 304.243 285.432C304.597 284.673 305.089 284.087 305.72 283.674C306.35 283.261 307.079 283.054 307.906 283.054C308.545 283.054 309.05 283.161 309.421 283.374C309.796 283.582 310.081 283.821 310.277 284.089C310.477 284.354 310.633 284.571 310.744 284.741H310.872V279.909H312.38V293H310.923V291.491H310.744C310.633 291.67 310.475 291.896 310.271 292.169C310.066 292.437 309.774 292.678 309.395 292.891C309.016 293.1 308.511 293.205 307.88 293.205ZM308.085 291.849C308.69 291.849 309.201 291.692 309.619 291.376C310.036 291.057 310.354 290.616 310.571 290.053C310.788 289.487 310.897 288.832 310.897 288.091C310.897 287.358 310.791 286.717 310.578 286.167C310.364 285.613 310.049 285.183 309.631 284.876C309.214 284.565 308.698 284.409 308.085 284.409C307.445 284.409 306.913 284.573 306.487 284.901C306.065 285.225 305.747 285.666 305.534 286.224C305.325 286.778 305.221 287.401 305.221 288.091C305.221 288.79 305.328 289.425 305.541 289.996C305.758 290.562 306.078 291.014 306.499 291.351C306.926 291.683 307.454 291.849 308.085 291.849ZM324.685 283.182V284.46H319.597V283.182H324.685ZM321.08 280.83H322.588V290.188C322.588 290.614 322.65 290.933 322.774 291.146C322.901 291.355 323.063 291.496 323.259 291.568C323.46 291.636 323.671 291.67 323.892 291.67C324.058 291.67 324.195 291.662 324.301 291.645C324.408 291.624 324.493 291.607 324.557 291.594L324.864 292.949C324.761 292.987 324.619 293.026 324.435 293.064C324.252 293.107 324.02 293.128 323.739 293.128C323.313 293.128 322.895 293.036 322.486 292.853C322.081 292.67 321.744 292.391 321.476 292.016C321.212 291.641 321.08 291.168 321.08 290.597V280.83ZM330.837 293.205C329.951 293.205 329.173 292.994 328.504 292.572C327.839 292.15 327.319 291.56 326.944 290.801C326.574 290.043 326.388 289.156 326.388 288.142C326.388 287.119 326.574 286.227 326.944 285.464C327.319 284.701 327.839 284.109 328.504 283.687C329.173 283.265 329.951 283.054 330.837 283.054C331.723 283.054 332.499 283.265 333.164 283.687C333.833 284.109 334.353 284.701 334.723 285.464C335.098 286.227 335.286 287.119 335.286 288.142C335.286 289.156 335.098 290.043 334.723 290.801C334.353 291.56 333.833 292.15 333.164 292.572C332.499 292.994 331.723 293.205 330.837 293.205ZM330.837 291.849C331.51 291.849 332.064 291.677 332.499 291.332C332.934 290.987 333.255 290.533 333.464 289.97C333.673 289.408 333.777 288.798 333.777 288.142C333.777 287.486 333.673 286.874 333.464 286.308C333.255 285.741 332.934 285.283 332.499 284.933C332.064 284.584 331.51 284.409 330.837 284.409C330.164 284.409 329.61 284.584 329.175 284.933C328.741 285.283 328.419 285.741 328.21 286.308C328.001 286.874 327.897 287.486 327.897 288.142C327.897 288.798 328.001 289.408 328.21 289.97C328.419 290.533 328.741 290.987 329.175 291.332C329.61 291.677 330.164 291.849 330.837 291.849ZM350.015 283.182C349.938 282.534 349.627 282.031 349.082 281.673C348.536 281.315 347.867 281.136 347.074 281.136C346.495 281.136 345.988 281.23 345.553 281.418C345.123 281.605 344.786 281.863 344.543 282.191C344.305 282.519 344.185 282.892 344.185 283.31C344.185 283.659 344.268 283.96 344.435 284.211C344.605 284.458 344.822 284.665 345.087 284.831C345.351 284.993 345.628 285.127 345.918 285.234C346.207 285.336 346.474 285.419 346.717 285.483L348.046 285.841C348.387 285.93 348.766 286.054 349.184 286.212C349.606 286.369 350.008 286.585 350.392 286.857C350.78 287.126 351.099 287.471 351.351 287.893C351.602 288.315 351.728 288.832 351.728 289.446C351.728 290.153 351.543 290.793 351.172 291.364C350.805 291.935 350.268 292.388 349.561 292.725C348.858 293.062 348.003 293.23 346.998 293.23C346.06 293.23 345.248 293.079 344.562 292.776C343.881 292.474 343.344 292.052 342.952 291.511C342.564 290.969 342.344 290.341 342.293 289.625H343.93C343.972 290.119 344.138 290.528 344.428 290.852C344.722 291.172 345.093 291.411 345.54 291.568C345.992 291.722 346.478 291.798 346.998 291.798C347.603 291.798 348.146 291.7 348.628 291.504C349.109 291.304 349.491 291.027 349.772 290.673C350.053 290.315 350.194 289.898 350.194 289.42C350.194 288.986 350.072 288.632 349.829 288.359C349.587 288.087 349.267 287.865 348.871 287.695C348.474 287.524 348.046 287.375 347.586 287.247L345.975 286.787C344.952 286.493 344.143 286.073 343.546 285.528C342.949 284.982 342.651 284.268 342.651 283.386C342.651 282.653 342.849 282.014 343.246 281.469C343.646 280.919 344.183 280.493 344.856 280.19C345.534 279.884 346.29 279.73 347.126 279.73C347.969 279.73 348.719 279.881 349.376 280.184C350.032 280.482 350.552 280.891 350.935 281.411C351.323 281.931 351.528 282.521 351.549 283.182H350.015ZM354.13 293V283.182H355.638V293H354.13ZM354.897 281.545C354.603 281.545 354.349 281.445 354.136 281.245C353.927 281.045 353.823 280.804 353.823 280.523C353.823 280.241 353.927 280.001 354.136 279.8C354.349 279.6 354.603 279.5 354.897 279.5C355.191 279.5 355.442 279.6 355.651 279.8C355.864 280.001 355.971 280.241 355.971 280.523C355.971 280.804 355.864 281.045 355.651 281.245C355.442 281.445 355.191 281.545 354.897 281.545ZM362.364 296.886C361.636 296.886 361.009 296.793 360.485 296.605C359.961 296.422 359.524 296.179 359.175 295.876C358.829 295.578 358.555 295.259 358.35 294.918L359.552 294.074C359.688 294.253 359.861 294.457 360.07 294.688C360.278 294.922 360.564 295.124 360.926 295.295C361.293 295.469 361.772 295.557 362.364 295.557C363.157 295.557 363.811 295.365 364.327 294.982C364.842 294.598 365.1 293.997 365.1 293.179V291.185H364.972C364.861 291.364 364.704 291.585 364.499 291.849C364.299 292.109 364.009 292.342 363.63 292.546C363.255 292.746 362.748 292.847 362.109 292.847C361.316 292.847 360.604 292.659 359.974 292.284C359.347 291.909 358.851 291.364 358.484 290.648C358.122 289.932 357.941 289.062 357.941 288.04C357.941 287.034 358.118 286.158 358.472 285.413C358.825 284.663 359.317 284.083 359.948 283.674C360.579 283.261 361.307 283.054 362.134 283.054C362.773 283.054 363.28 283.161 363.655 283.374C364.035 283.582 364.324 283.821 364.525 284.089C364.729 284.354 364.887 284.571 364.998 284.741H365.151V283.182H366.609V293.281C366.609 294.125 366.417 294.811 366.033 295.339C365.654 295.872 365.143 296.262 364.499 296.509C363.86 296.761 363.148 296.886 362.364 296.886ZM362.313 291.491C362.918 291.491 363.43 291.353 363.847 291.076C364.265 290.799 364.582 290.401 364.8 289.881C365.017 289.361 365.126 288.739 365.126 288.014C365.126 287.307 365.019 286.683 364.806 286.141C364.593 285.6 364.278 285.176 363.86 284.869C363.442 284.562 362.927 284.409 362.313 284.409C361.674 284.409 361.141 284.571 360.715 284.895C360.293 285.219 359.976 285.653 359.763 286.199C359.554 286.744 359.449 287.349 359.449 288.014C359.449 288.696 359.556 289.299 359.769 289.823C359.986 290.343 360.306 290.752 360.728 291.05C361.154 291.344 361.682 291.491 362.313 291.491ZM370.878 287.094V293H369.37V283.182H370.827V284.716H370.955C371.185 284.217 371.535 283.817 372.003 283.514C372.472 283.207 373.077 283.054 373.819 283.054C374.484 283.054 375.065 283.19 375.564 283.463C376.062 283.732 376.45 284.141 376.727 284.69C377.004 285.236 377.143 285.926 377.143 286.761V293H375.634V286.864C375.634 286.092 375.434 285.491 375.033 285.061C374.633 284.626 374.083 284.409 373.384 284.409C372.903 284.409 372.472 284.513 372.093 284.722C371.718 284.931 371.422 285.236 371.204 285.636C370.987 286.037 370.878 286.523 370.878 287.094ZM384.962 293V283.182H386.47V293H384.962ZM385.729 281.545C385.435 281.545 385.181 281.445 384.968 281.245C384.759 281.045 384.655 280.804 384.655 280.523C384.655 280.241 384.759 280.001 384.968 279.8C385.181 279.6 385.435 279.5 385.729 279.5C386.023 279.5 386.274 279.6 386.483 279.8C386.696 280.001 386.803 280.241 386.803 280.523C386.803 280.804 386.696 281.045 386.483 281.245C386.274 281.445 386.023 281.545 385.729 281.545ZM390.742 287.094V293H389.233V283.182H390.691V284.716H390.818C391.049 284.217 391.398 283.817 391.867 283.514C392.335 283.207 392.941 283.054 393.682 283.054C394.347 283.054 394.929 283.19 395.427 283.463C395.926 283.732 396.313 284.141 396.59 284.69C396.867 285.236 397.006 285.926 397.006 286.761V293H395.497V286.864C395.497 286.092 395.297 285.491 394.897 285.061C394.496 284.626 393.946 284.409 393.247 284.409C392.766 284.409 392.335 284.513 391.956 284.722C391.581 284.931 391.285 285.236 391.068 285.636C390.85 286.037 390.742 286.523 390.742 287.094Z" fill="white"/>
<rect x="198" y="354" width="90" height="90" rx="45" fill="url(#paint7_linear_0_1)"/>
<rect x="198" y="354" width="90" height="90" rx="45" fill="url(#paint8_linear_0_1)" fill-opacity="0.2"/>
<defs>
<filter id="filter0_d_0_1" x="41.1591" y="62.4545" width="33.3068" height="27.5455" filterUnits="userSpaceOnUse" color-interpolation-filters="sRGB">
<feFlood flood-opacity="0" result="BackgroundImageFix"/>
<feColorMatrix in="SourceAlpha" type="matrix" values="0 0 0 0 0 0 0 0 0 0 0 0 0 0 0 0 0 0 127 0" result="hardAlpha"/>
<feOffset dy="5"/>
<feGaussianBlur stdDeviation="2"/>
<feComposite in2="hardAlpha" operator="out"/>
<feColorMatrix type="matrix" values="0 0 0 0 0 0 0 0 0 0 0 0 0 0 0 0 0 0 0.3 0"/>
<feBlend mode="normal" in2="BackgroundImageFix" result="effect1_dropShadow_0_1"/>
<feBlend mode="normal" in="SourceGraphic" in2="effect1_dropShadow_0_1" result="shape"/>
</filter>
<filter id="filter1_d_0_1" x="54.8352" y="53.3636" width="28.7273" height="35.6364" filterUnits="userSpaceOnUse" color-interpolation-filters="sRGB">
<feFlood flood-opacity="0" result="BackgroundImageFix"/>
<feColorMatrix in="SourceAlpha" type="matrix" values="0 0 0 0 0 0 0 0 0 0 0 0 0 0 0 0 0 0 127 0" result="hardAlpha"/>
<feOffset dy="4"/>
<feGaussianBlur stdDeviation="2"/>
<feComposite in2="hardAlpha" operator="out"/>
<feColorMatrix type="matrix" values="0 0 0 0 0 0 0 0 0 0 0 0 0 0 0 0 0 0 0.3 0"/>
<feBlend mode="normal" in2="BackgroundImageFix" result="effect1_dropShadow_0_1"/>
<feBlend mode="normal" in="SourceGraphic" in2="effect1_dropShadow_0_1" result="shape"/>
</filter>
<linearGradient id="paint0_linear_0_1" x1="21.5" y1="1.37777e-06" x2="293.808" y2="495.106" gradientUnits="userSpaceOnUse">
<stop stop-color="#323198" stop-opacity="0.95"/>
<stop offset="0.997917" stop-color="#4F1B80" stop-opacity="0.95"/>
</linearGradient>
<linearGradient id="paint1_linear_0_1" x1="396.985" y1="7.99115" x2="442.797" y2="278.259" gradientUnits="userSpaceOnUse">
<stop stop-color="#7A3EBF"/>
<stop offset="0.577389" stop-color="#A710A4"/>
</linearGradient>
<linearGradient id="paint2_linear_0_1" x1="114.964" y1="176.862" x2="114.312" y2="549.565" gradientUnits="userSpaceOnUse">
<stop stop-color="#2978DA"/>
<stop offset="0.617708" stop-color="#7A3EBF"/>
<stop offset="1" stop-color="#A710A4"/>
</linearGradient>
<linearGradient id="paint3_linear_0_1" x1="295" y1="130.476" x2="185" y2="130.476" gradientUnits="userSpaceOnUse">
<stop offset="0.133333" stop-color="#7A3EBF"/>
<stop offset="0.773958" stop-color="#2978DA"/>
</linearGradient>
<linearGradient id="paint4_linear_0_1" x1="190.238" y1="134.667" x2="289.762" y2="134.667" gradientUnits="userSpaceOnUse">
<stop stop-color="white"/>
<stop offset="1" stop-color="white" stop-opacity="0"/>
</linearGradient>
<linearGradient id="paint5_linear_0_1" x1="399" y1="483" x2="399" y2="513" gradientUnits="userSpaceOnUse">
<stop offset="0.190625" stop-color="#A710A4"/>
<stop offset="0.872917" stop-color="#7936C7"/>
</linearGradient>
<linearGradient id="paint6_linear_0_1" x1="399" y1="483" x2="399" y2="513" gradientUnits="userSpaceOnUse">
<stop offset="0.122917" stop-color="white"/>
<stop offset="1" stop-color="white" stop-opacity="0"/>
</linearGradient>
<linearGradient id="paint7_linear_0_1" x1="198" y1="399" x2="277.5" y2="399" gradientUnits="userSpaceOnUse">
<stop stop-color="#A710A4"/>
<stop offset="1" stop-color="#7936C7"/>
</linearGradient>
<linearGradient id="paint8_linear_0_1" x1="198" y1="399" x2="288" y2="399" gradientUnits="userSpaceOnUse">
<stop offset="0.128125" stop-color="white"/>
<stop offset="1" stop-color="white" stop-opacity="0"/>
</linearGradient>
</defs>
</svg>
