<svg width="450" height="631" viewBox="0 0 450 631" fill="none" xmlns="http://www.w3.org/2000/svg">
<path d="M0 0H450V630H0V0Z" fill="url(#paint0_linear_0_1)" fill-opacity="0.95"/>
<path d="M450 0H228.437C202.83 81.3423 259.779 77.6378 291.455 65.6177C312.627 54.5829 347.471 51.0754 317.462 125.324C287.454 199.572 345.637 216.952 378.48 216.361C395.318 217.543 424.893 230.785 408.488 274.294C392.083 317.802 429.327 332.227 450 334V0Z" fill="url(#paint1_linear_0_1)"/>
<path d="M0.560091 630.184L0.695074 232.91C81.7706 202.837 91.4292 295.996 82.2728 342.781C80.8557 361.58 63.7957 392.41 118.638 392.506C174.931 392.604 188.066 462.521 174.742 500.51C171.805 508.884 164.85 533.984 197.267 548.985C231.846 564.986 237.134 609.474 224.809 630.576L0.560091 630.184Z" fill="url(#paint2_linear_0_1)"/>
<path d="M37.5 67C37.5 53.469 48.469 42.5 62 42.5C75.531 42.5 86.5 53.469 86.5 67C86.5 80.531 75.531 91.5 62 91.5C48.469 91.5 37.5 80.531 37.5 67Z" stroke="white"/>
<g filter="url(#filter0_d_0_1)">
<path d="M49.8097 81L44.1591 62.4545H47.1534L51.1619 76.6534H51.3551L55.3153 62.4545H58.358L62.2699 76.6051H62.4631L66.4716 62.4545H69.4659L63.8153 81H61.0142L56.9574 66.7528H56.6676L52.6108 81H49.8097Z" fill="white"/>
</g>
<g filter="url(#filter1_d_0_1)">
<path d="M57.8352 56.3324V53.3636H78.5625V56.3324H69.8722V81H66.5256V56.3324H57.8352Z" fill="white"/>
</g>
<rect x="158" y="102" width="110" height="110" rx="55" fill="url(#paint3_linear_0_1)"/>
<rect x="158" y="102" width="110" height="110" rx="55" fill="url(#paint4_linear_0_1)" fill-opacity="0.24"/>
<rect x="380" y="506" width="30" height="30" rx="15" fill="url(#paint5_linear_0_1)"/>
<rect x="380" y="506" width="30" height="30" rx="15" fill="url(#paint6_linear_0_1)" fill-opacity="0.2"/>
<path d="M128.428 305L119.957 274.455H124.804L130.755 298.109H131.039L137.228 274.455H142.031L148.22 298.124H148.504L154.44 274.455H159.302L150.816 305H146.177L139.749 282.121H139.51L133.082 305H128.428ZM170.764 305.462C168.507 305.462 166.563 304.98 164.932 304.016C163.312 303.041 162.059 301.674 161.174 299.914C160.299 298.144 159.861 296.071 159.861 293.695C159.861 291.348 160.299 289.28 161.174 287.49C162.059 285.7 163.292 284.303 164.873 283.299C166.464 282.295 168.323 281.793 170.451 281.793C171.743 281.793 172.996 282.006 174.209 282.434C175.422 282.862 176.511 283.533 177.476 284.447C178.44 285.362 179.201 286.55 179.758 288.012C180.314 289.464 180.593 291.229 180.593 293.307V294.888H162.382V291.547H176.223C176.223 290.374 175.984 289.335 175.507 288.43C175.03 287.515 174.358 286.794 173.493 286.267C172.638 285.74 171.634 285.477 170.481 285.477C169.228 285.477 168.134 285.785 167.199 286.401C166.275 287.008 165.559 287.803 165.052 288.788C164.555 289.762 164.306 290.821 164.306 291.964V294.575C164.306 296.106 164.574 297.408 165.111 298.482C165.658 299.556 166.419 300.376 167.393 300.943C168.368 301.5 169.506 301.778 170.809 301.778C171.654 301.778 172.425 301.659 173.121 301.42C173.817 301.172 174.418 300.804 174.925 300.317C175.432 299.83 175.82 299.228 176.089 298.512L180.309 299.273C179.971 300.516 179.365 301.604 178.49 302.539C177.625 303.464 176.536 304.185 175.224 304.702C173.921 305.209 172.434 305.462 170.764 305.462ZM190 274.455V305H185.541V274.455H190ZM205.65 305.462C203.432 305.462 201.523 304.96 199.922 303.956C198.331 302.942 197.108 301.545 196.253 299.765C195.398 297.985 194.971 295.947 194.971 293.65C194.971 291.323 195.408 289.27 196.283 287.49C197.158 285.7 198.391 284.303 199.982 283.299C201.573 282.295 203.447 281.793 205.605 281.793C207.345 281.793 208.896 282.116 210.258 282.762C211.621 283.398 212.719 284.293 213.555 285.447C214.4 286.6 214.902 287.947 215.061 289.489H210.721C210.482 288.415 209.935 287.49 209.08 286.714C208.235 285.939 207.101 285.551 205.68 285.551C204.437 285.551 203.348 285.879 202.413 286.536C201.488 287.182 200.768 288.107 200.251 289.31C199.733 290.503 199.475 291.915 199.475 293.545C199.475 295.216 199.729 296.658 200.236 297.871C200.743 299.084 201.459 300.023 202.383 300.69C203.318 301.356 204.417 301.689 205.68 301.689C206.525 301.689 207.29 301.535 207.976 301.227C208.672 300.908 209.254 300.456 209.721 299.869C210.199 299.283 210.532 298.577 210.721 297.751H215.061C214.902 299.233 214.42 300.555 213.614 301.719C212.809 302.882 211.73 303.797 210.378 304.463C209.035 305.129 207.459 305.462 205.65 305.462ZM229.48 305.462C227.332 305.462 225.458 304.97 223.857 303.986C222.256 303.001 221.013 301.624 220.128 299.854C219.243 298.085 218.801 296.016 218.801 293.65C218.801 291.273 219.243 289.195 220.128 287.415C221.013 285.636 222.256 284.254 223.857 283.269C225.458 282.285 227.332 281.793 229.48 281.793C231.627 281.793 233.502 282.285 235.103 283.269C236.703 284.254 237.946 285.636 238.831 287.415C239.716 289.195 240.159 291.273 240.159 293.65C240.159 296.016 239.716 298.085 238.831 299.854C237.946 301.624 236.703 303.001 235.103 303.986C233.502 304.97 231.627 305.462 229.48 305.462ZM229.495 301.719C230.887 301.719 232.04 301.351 232.955 300.615C233.87 299.879 234.546 298.9 234.983 297.677C235.431 296.454 235.654 295.107 235.654 293.635C235.654 292.173 235.431 290.831 234.983 289.608C234.546 288.375 233.87 287.386 232.955 286.64C232.04 285.894 230.887 285.521 229.495 285.521C228.093 285.521 226.929 285.894 226.005 286.64C225.09 287.386 224.409 288.375 223.961 289.608C223.524 290.831 223.305 292.173 223.305 293.635C223.305 295.107 223.524 296.454 223.961 297.677C224.409 298.9 225.09 299.879 226.005 300.615C226.929 301.351 228.093 301.719 229.495 301.719ZM245.137 305V282.091H249.417V285.82H249.7C250.178 284.557 250.958 283.572 252.042 282.866C253.126 282.151 254.423 281.793 255.935 281.793C257.466 281.793 258.749 282.151 259.783 282.866C260.827 283.582 261.597 284.567 262.095 285.82H262.333C262.88 284.597 263.75 283.622 264.943 282.896C266.137 282.161 267.558 281.793 269.209 281.793C271.287 281.793 272.982 282.444 274.295 283.746C275.617 285.049 276.279 287.013 276.279 289.638V305H271.819V290.055C271.819 288.504 271.396 287.381 270.551 286.685C269.706 285.989 268.697 285.641 267.524 285.641C266.072 285.641 264.943 286.088 264.138 286.983C263.333 287.868 262.93 289.006 262.93 290.398V305H258.485V289.772C258.485 288.529 258.097 287.53 257.322 286.774C256.546 286.018 255.537 285.641 254.294 285.641C253.449 285.641 252.669 285.864 251.953 286.312C251.247 286.749 250.675 287.361 250.237 288.146C249.81 288.932 249.596 289.842 249.596 290.876V305H245.137ZM292.129 305.462C289.872 305.462 287.928 304.98 286.298 304.016C284.677 303.041 283.424 301.674 282.539 299.914C281.664 298.144 281.227 296.071 281.227 293.695C281.227 291.348 281.664 289.28 282.539 287.49C283.424 285.7 284.657 284.303 286.238 283.299C287.829 282.295 289.688 281.793 291.816 281.793C293.109 281.793 294.362 282.006 295.575 282.434C296.788 282.862 297.876 283.533 298.841 284.447C299.805 285.362 300.566 286.55 301.123 288.012C301.68 289.464 301.958 291.229 301.958 293.307V294.888H283.747V291.547H297.588C297.588 290.374 297.349 289.335 296.872 288.43C296.395 287.515 295.724 286.794 294.859 286.267C294.004 285.74 292.999 285.477 291.846 285.477C290.593 285.477 289.499 285.785 288.565 286.401C287.64 287.008 286.924 287.803 286.417 288.788C285.92 289.762 285.671 290.821 285.671 291.964V294.575C285.671 296.106 285.94 297.408 286.477 298.482C287.023 299.556 287.784 300.376 288.759 300.943C289.733 301.5 290.871 301.778 292.174 301.778C293.019 301.778 293.79 301.659 294.486 301.42C295.182 301.172 295.783 300.804 296.29 300.317C296.798 299.83 297.185 299.228 297.454 298.512L301.675 299.273C301.337 300.516 300.73 301.604 299.855 302.539C298.99 303.464 297.901 304.185 296.589 304.702C295.286 305.209 293.8 305.462 292.129 305.462Z" fill="white"/>
<path d="M201.714 324.182C201.637 323.534 201.326 323.031 200.781 322.673C200.235 322.315 199.566 322.136 198.774 322.136C198.194 322.136 197.687 322.23 197.252 322.418C196.822 322.605 196.485 322.863 196.242 323.191C196.004 323.519 195.884 323.892 195.884 324.31C195.884 324.659 195.968 324.96 196.134 325.211C196.304 325.458 196.522 325.665 196.786 325.831C197.05 325.993 197.327 326.127 197.617 326.234C197.907 326.336 198.173 326.419 198.416 326.483L199.745 326.841C200.086 326.93 200.465 327.054 200.883 327.212C201.305 327.369 201.708 327.585 202.091 327.857C202.479 328.126 202.799 328.471 203.05 328.893C203.301 329.315 203.427 329.832 203.427 330.446C203.427 331.153 203.242 331.793 202.871 332.364C202.505 332.935 201.968 333.388 201.26 333.725C200.557 334.062 199.703 334.23 198.697 334.23C197.759 334.23 196.948 334.079 196.262 333.776C195.58 333.474 195.043 333.052 194.651 332.511C194.263 331.969 194.044 331.341 193.992 330.625H195.629C195.671 331.119 195.838 331.528 196.127 331.852C196.421 332.172 196.792 332.411 197.24 332.568C197.691 332.722 198.177 332.798 198.697 332.798C199.302 332.798 199.845 332.7 200.327 332.504C200.809 332.304 201.19 332.027 201.471 331.673C201.752 331.315 201.893 330.898 201.893 330.42C201.893 329.986 201.772 329.632 201.529 329.359C201.286 329.087 200.966 328.865 200.57 328.695C200.174 328.524 199.745 328.375 199.285 328.247L197.674 327.787C196.652 327.493 195.842 327.073 195.245 326.528C194.649 325.982 194.35 325.268 194.35 324.386C194.35 323.653 194.549 323.014 194.945 322.469C195.345 321.919 195.882 321.493 196.556 321.19C197.233 320.884 197.99 320.73 198.825 320.73C199.669 320.73 200.419 320.881 201.075 321.184C201.731 321.482 202.251 321.891 202.634 322.411C203.022 322.931 203.227 323.521 203.248 324.182H201.714ZM205.829 334V324.182H207.337V334H205.829ZM206.596 322.545C206.302 322.545 206.048 322.445 205.835 322.245C205.627 322.045 205.522 321.804 205.522 321.523C205.522 321.241 205.627 321.001 205.835 320.8C206.048 320.6 206.302 320.5 206.596 320.5C206.89 320.5 207.141 320.6 207.35 320.8C207.563 321.001 207.67 321.241 207.67 321.523C207.67 321.804 207.563 322.045 207.35 322.245C207.141 322.445 206.89 322.545 206.596 322.545ZM214.063 337.886C213.335 337.886 212.708 337.793 212.184 337.605C211.66 337.422 211.223 337.179 210.874 336.876C210.529 336.578 210.254 336.259 210.049 335.918L211.251 335.074C211.387 335.253 211.56 335.457 211.769 335.688C211.978 335.922 212.263 336.124 212.625 336.295C212.992 336.469 213.471 336.557 214.063 336.557C214.856 336.557 215.51 336.365 216.026 335.982C216.541 335.598 216.799 334.997 216.799 334.179V332.185H216.671C216.561 332.364 216.403 332.585 216.198 332.849C215.998 333.109 215.708 333.342 215.329 333.546C214.954 333.746 214.447 333.847 213.808 333.847C213.015 333.847 212.304 333.659 211.673 333.284C211.046 332.909 210.55 332.364 210.184 331.648C209.821 330.932 209.64 330.062 209.64 329.04C209.64 328.034 209.817 327.158 210.171 326.413C210.524 325.663 211.017 325.083 211.647 324.674C212.278 324.261 213.007 324.054 213.833 324.054C214.473 324.054 214.98 324.161 215.355 324.374C215.734 324.582 216.024 324.821 216.224 325.089C216.429 325.354 216.586 325.571 216.697 325.741H216.85V324.182H218.308V334.281C218.308 335.125 218.116 335.811 217.733 336.339C217.353 336.872 216.842 337.262 216.198 337.509C215.559 337.761 214.848 337.886 214.063 337.886ZM214.012 332.491C214.617 332.491 215.129 332.353 215.546 332.076C215.964 331.799 216.282 331.401 216.499 330.881C216.716 330.361 216.825 329.739 216.825 329.014C216.825 328.307 216.718 327.683 216.505 327.141C216.292 326.6 215.977 326.176 215.559 325.869C215.142 325.562 214.626 325.409 214.012 325.409C213.373 325.409 212.84 325.571 212.414 325.895C211.992 326.219 211.675 326.653 211.462 327.199C211.253 327.744 211.149 328.349 211.149 329.014C211.149 329.696 211.255 330.299 211.468 330.823C211.686 331.343 212.005 331.752 212.427 332.05C212.853 332.344 213.382 332.491 214.012 332.491ZM222.578 328.094V334H221.069V324.182H222.527V325.716H222.654C222.884 325.217 223.234 324.817 223.703 324.514C224.171 324.207 224.777 324.054 225.518 324.054C226.183 324.054 226.764 324.19 227.263 324.463C227.762 324.732 228.149 325.141 228.426 325.69C228.703 326.236 228.842 326.926 228.842 327.761V334H227.333V327.864C227.333 327.092 227.133 326.491 226.733 326.061C226.332 325.626 225.782 325.409 225.083 325.409C224.602 325.409 224.171 325.513 223.792 325.722C223.417 325.931 223.121 326.236 222.904 326.636C222.686 327.037 222.578 327.523 222.578 328.094ZM245.456 320.909H247.042V329.577C247.042 330.472 246.831 331.271 246.409 331.974C245.991 332.673 245.401 333.224 244.638 333.629C243.875 334.03 242.981 334.23 241.954 334.23C240.927 334.23 240.032 334.03 239.269 333.629C238.506 333.224 237.914 332.673 237.492 331.974C237.074 331.271 236.866 330.472 236.866 329.577V320.909H238.451V329.449C238.451 330.088 238.591 330.657 238.873 331.156C239.154 331.65 239.554 332.04 240.074 332.325C240.598 332.607 241.225 332.747 241.954 332.747C242.682 332.747 243.309 332.607 243.833 332.325C244.357 332.04 244.758 331.65 245.035 331.156C245.316 330.657 245.456 330.088 245.456 329.449V320.909ZM250.003 337.682V324.182H251.46V325.741H251.639C251.75 325.571 251.903 325.354 252.099 325.089C252.3 324.821 252.585 324.582 252.956 324.374C253.331 324.161 253.838 324.054 254.477 324.054C255.304 324.054 256.033 324.261 256.663 324.674C257.294 325.087 257.786 325.673 258.14 326.432C258.494 327.19 258.67 328.085 258.67 329.116C258.67 330.156 258.494 331.058 258.14 331.82C257.786 332.579 257.296 333.167 256.67 333.585C256.043 333.998 255.321 334.205 254.503 334.205C253.872 334.205 253.367 334.1 252.988 333.891C252.609 333.678 252.317 333.437 252.112 333.169C251.908 332.896 251.75 332.67 251.639 332.491H251.511V337.682H250.003ZM251.486 329.091C251.486 329.832 251.594 330.487 251.812 331.053C252.029 331.616 252.347 332.057 252.764 332.376C253.182 332.692 253.693 332.849 254.298 332.849C254.929 332.849 255.455 332.683 255.877 332.351C256.303 332.014 256.623 331.562 256.836 330.996C257.053 330.425 257.162 329.79 257.162 329.091C257.162 328.401 257.055 327.778 256.842 327.224C256.633 326.666 256.316 326.225 255.89 325.901C255.468 325.573 254.937 325.409 254.298 325.409C253.685 325.409 253.169 325.565 252.751 325.876C252.334 326.183 252.018 326.613 251.805 327.167C251.592 327.717 251.486 328.358 251.486 329.091ZM270.304 324.182V325.46H265.216V324.182H270.304ZM266.699 321.83H268.207V331.188C268.207 331.614 268.269 331.933 268.393 332.146C268.521 332.355 268.682 332.496 268.878 332.568C269.079 332.636 269.29 332.67 269.511 332.67C269.677 332.67 269.814 332.662 269.92 332.645C270.027 332.624 270.112 332.607 270.176 332.594L270.483 333.949C270.381 333.987 270.238 334.026 270.055 334.064C269.871 334.107 269.639 334.128 269.358 334.128C268.932 334.128 268.514 334.036 268.105 333.853C267.7 333.67 267.364 333.391 267.095 333.016C266.831 332.641 266.699 332.168 266.699 331.597V321.83ZM276.456 334.205C275.57 334.205 274.792 333.994 274.123 333.572C273.458 333.15 272.938 332.56 272.563 331.801C272.193 331.043 272.007 330.156 272.007 329.142C272.007 328.119 272.193 327.227 272.563 326.464C272.938 325.701 273.458 325.109 274.123 324.687C274.792 324.265 275.57 324.054 276.456 324.054C277.343 324.054 278.118 324.265 278.783 324.687C279.452 325.109 279.972 325.701 280.343 326.464C280.718 327.227 280.905 328.119 280.905 329.142C280.905 330.156 280.718 331.043 280.343 331.801C279.972 332.56 279.452 333.15 278.783 333.572C278.118 333.994 277.343 334.205 276.456 334.205ZM276.456 332.849C277.13 332.849 277.684 332.677 278.118 332.332C278.553 331.987 278.875 331.533 279.083 330.97C279.292 330.408 279.397 329.798 279.397 329.142C279.397 328.486 279.292 327.874 279.083 327.308C278.875 326.741 278.553 326.283 278.118 325.933C277.684 325.584 277.13 325.409 276.456 325.409C275.783 325.409 275.229 325.584 274.794 325.933C274.36 326.283 274.038 326.741 273.829 327.308C273.62 327.874 273.516 328.486 273.516 329.142C273.516 329.798 273.62 330.408 273.829 330.97C274.038 331.533 274.36 331.987 274.794 332.332C275.229 332.677 275.783 332.849 276.456 332.849ZM295.225 326.381L293.87 326.764C293.785 326.538 293.659 326.319 293.493 326.106C293.331 325.888 293.109 325.71 292.828 325.569C292.547 325.428 292.187 325.358 291.748 325.358C291.147 325.358 290.646 325.496 290.245 325.773C289.849 326.046 289.651 326.393 289.651 326.815C289.651 327.19 289.787 327.487 290.06 327.704C290.333 327.921 290.759 328.102 291.339 328.247L292.796 328.605C293.674 328.818 294.328 329.144 294.758 329.583C295.189 330.018 295.404 330.578 295.404 331.264C295.404 331.827 295.242 332.33 294.918 332.773C294.598 333.216 294.151 333.565 293.576 333.821C293 334.077 292.331 334.205 291.569 334.205C290.567 334.205 289.738 333.987 289.082 333.553C288.426 333.118 288.01 332.483 287.836 331.648L289.267 331.29C289.404 331.818 289.662 332.214 290.041 332.479C290.424 332.743 290.925 332.875 291.543 332.875C292.246 332.875 292.804 332.726 293.218 332.428C293.635 332.125 293.844 331.763 293.844 331.341C293.844 331 293.725 330.714 293.486 330.484C293.248 330.25 292.881 330.075 292.387 329.96L290.75 329.577C289.851 329.364 289.191 329.033 288.769 328.586C288.351 328.134 288.142 327.57 288.142 326.892C288.142 326.338 288.298 325.848 288.609 325.422C288.924 324.996 289.353 324.661 289.894 324.418C290.439 324.175 291.057 324.054 291.748 324.054C292.719 324.054 293.482 324.267 294.036 324.693C294.594 325.119 294.991 325.682 295.225 326.381ZM301.945 324.182V325.46H296.856V324.182H301.945ZM298.339 321.83H299.848V331.188C299.848 331.614 299.91 331.933 300.033 332.146C300.161 332.355 300.323 332.496 300.519 332.568C300.719 332.636 300.93 332.67 301.152 332.67C301.318 332.67 301.454 332.662 301.561 332.645C301.668 332.624 301.753 332.607 301.817 332.594L302.123 333.949C302.021 333.987 301.878 334.026 301.695 334.064C301.512 334.107 301.28 334.128 300.998 334.128C300.572 334.128 300.155 334.036 299.746 333.853C299.341 333.67 299.004 333.391 298.736 333.016C298.472 332.641 298.339 332.168 298.339 331.597V321.83ZM307.103 334.23C306.481 334.23 305.916 334.113 305.409 333.879C304.902 333.64 304.499 333.297 304.201 332.849C303.903 332.398 303.753 331.852 303.753 331.213C303.753 330.651 303.864 330.195 304.086 329.845C304.307 329.491 304.604 329.214 304.974 329.014C305.345 328.814 305.754 328.665 306.202 328.567C306.653 328.464 307.107 328.384 307.563 328.324C308.16 328.247 308.643 328.19 309.014 328.151C309.389 328.109 309.662 328.038 309.832 327.94C310.007 327.842 310.094 327.672 310.094 327.429V327.378C310.094 326.747 309.922 326.257 309.577 325.908C309.236 325.558 308.718 325.384 308.023 325.384C307.303 325.384 306.739 325.541 306.329 325.857C305.92 326.172 305.633 326.509 305.467 326.866L304.035 326.355C304.29 325.759 304.631 325.294 305.057 324.962C305.488 324.625 305.957 324.391 306.464 324.259C306.975 324.122 307.478 324.054 307.972 324.054C308.288 324.054 308.65 324.092 309.059 324.169C309.472 324.241 309.871 324.393 310.254 324.623C310.642 324.853 310.964 325.2 311.219 325.665C311.475 326.129 311.603 326.751 311.603 327.531V334H310.094V332.67H310.018C309.915 332.884 309.745 333.112 309.506 333.354C309.268 333.597 308.95 333.804 308.554 333.974C308.158 334.145 307.674 334.23 307.103 334.23ZM307.333 332.875C307.93 332.875 308.432 332.758 308.842 332.523C309.255 332.289 309.566 331.987 309.775 331.616C309.988 331.245 310.094 330.855 310.094 330.446V329.065C310.03 329.142 309.89 329.212 309.672 329.276C309.459 329.336 309.212 329.389 308.931 329.436C308.654 329.479 308.383 329.517 308.119 329.551C307.859 329.581 307.648 329.607 307.486 329.628C307.094 329.679 306.728 329.762 306.387 329.877C306.05 329.988 305.778 330.156 305.569 330.382C305.364 330.604 305.262 330.906 305.262 331.29C305.262 331.814 305.456 332.21 305.844 332.479C306.236 332.743 306.732 332.875 307.333 332.875ZM314.356 334V324.182H315.814V325.665H315.916C316.095 325.179 316.419 324.785 316.888 324.482C317.356 324.18 317.885 324.028 318.473 324.028C318.584 324.028 318.722 324.031 318.888 324.035C319.054 324.039 319.18 324.045 319.265 324.054V325.588C319.214 325.575 319.097 325.556 318.914 325.531C318.735 325.501 318.545 325.486 318.345 325.486C317.868 325.486 317.441 325.586 317.066 325.786C316.696 325.982 316.402 326.255 316.184 326.604C315.971 326.95 315.865 327.344 315.865 327.787V334H314.356ZM325.939 324.182V325.46H320.851V324.182H325.939ZM322.334 321.83H323.842V331.188C323.842 331.614 323.904 331.933 324.027 332.146C324.155 332.355 324.317 332.496 324.513 332.568C324.714 332.636 324.924 332.67 325.146 332.67C325.312 332.67 325.449 332.662 325.555 332.645C325.662 332.624 325.747 332.607 325.811 332.594L326.118 333.949C326.015 333.987 325.873 334.026 325.689 334.064C325.506 334.107 325.274 334.128 324.993 334.128C324.566 334.128 324.149 334.036 323.74 333.853C323.335 333.67 322.998 333.391 322.73 333.016C322.466 332.641 322.334 332.168 322.334 331.597V321.83ZM337.259 334.205C336.339 334.205 335.546 333.987 334.881 333.553C334.216 333.118 333.705 332.519 333.347 331.756C332.989 330.994 332.81 330.122 332.81 329.142C332.81 328.145 332.993 327.265 333.36 326.502C333.731 325.735 334.246 325.136 334.907 324.706C335.571 324.271 336.347 324.054 337.233 324.054C337.924 324.054 338.546 324.182 339.1 324.438C339.654 324.693 340.108 325.051 340.461 325.511C340.815 325.972 341.035 326.509 341.12 327.122H339.611C339.496 326.675 339.241 326.278 338.844 325.933C338.452 325.584 337.924 325.409 337.259 325.409C336.671 325.409 336.155 325.562 335.712 325.869C335.273 326.172 334.93 326.6 334.683 327.154C334.44 327.704 334.319 328.349 334.319 329.091C334.319 329.849 334.438 330.51 334.677 331.072C334.919 331.635 335.26 332.072 335.699 332.383C336.142 332.694 336.662 332.849 337.259 332.849C337.651 332.849 338.007 332.781 338.326 332.645C338.646 332.509 338.917 332.312 339.138 332.057C339.36 331.801 339.517 331.494 339.611 331.136H341.12C341.035 331.716 340.824 332.238 340.487 332.702C340.155 333.163 339.714 333.529 339.164 333.802C338.618 334.07 337.983 334.205 337.259 334.205ZM344.834 328.094V334H343.325V320.909H344.834V325.716H344.961C345.191 325.209 345.537 324.806 345.997 324.508C346.461 324.205 347.079 324.054 347.851 324.054C348.52 324.054 349.106 324.188 349.608 324.457C350.111 324.721 350.501 325.128 350.778 325.678C351.059 326.223 351.2 326.918 351.2 327.761V334H349.691V327.864C349.691 327.084 349.489 326.481 349.084 326.055C348.684 325.624 348.128 325.409 347.416 325.409C346.922 325.409 346.478 325.513 346.086 325.722C345.699 325.931 345.392 326.236 345.166 326.636C344.944 327.037 344.834 327.523 344.834 328.094ZM356.849 334.23C356.227 334.23 355.662 334.113 355.155 333.879C354.648 333.64 354.245 333.297 353.947 332.849C353.649 332.398 353.5 331.852 353.5 331.213C353.5 330.651 353.61 330.195 353.832 329.845C354.054 329.491 354.35 329.214 354.72 329.014C355.091 328.814 355.5 328.665 355.948 328.567C356.399 328.464 356.853 328.384 357.309 328.324C357.906 328.247 358.389 328.19 358.76 328.151C359.135 328.109 359.408 328.038 359.578 327.94C359.753 327.842 359.84 327.672 359.84 327.429V327.378C359.84 326.747 359.668 326.257 359.323 325.908C358.982 325.558 358.464 325.384 357.769 325.384C357.049 325.384 356.485 325.541 356.076 325.857C355.666 326.172 355.379 326.509 355.213 326.866L353.781 326.355C354.036 325.759 354.377 325.294 354.804 324.962C355.234 324.625 355.703 324.391 356.21 324.259C356.721 324.122 357.224 324.054 357.718 324.054C358.034 324.054 358.396 324.092 358.805 324.169C359.218 324.241 359.617 324.393 360 324.623C360.388 324.853 360.71 325.2 360.965 325.665C361.221 326.129 361.349 326.751 361.349 327.531V334H359.84V332.67H359.764C359.661 332.884 359.491 333.112 359.252 333.354C359.014 333.597 358.696 333.804 358.3 333.974C357.904 334.145 357.42 334.23 356.849 334.23ZM357.079 332.875C357.676 332.875 358.179 332.758 358.588 332.523C359.001 332.289 359.312 331.987 359.521 331.616C359.734 331.245 359.84 330.855 359.84 330.446V329.065C359.777 329.142 359.636 329.212 359.419 329.276C359.206 329.336 358.958 329.389 358.677 329.436C358.4 329.479 358.13 329.517 357.865 329.551C357.605 329.581 357.394 329.607 357.233 329.628C356.84 329.679 356.474 329.762 356.133 329.877C355.796 329.988 355.524 330.156 355.315 330.382C355.11 330.604 355.008 330.906 355.008 331.29C355.008 331.814 355.202 332.21 355.59 332.479C355.982 332.743 356.478 332.875 357.079 332.875ZM368.372 324.182V325.46H363.284V324.182H368.372ZM364.767 321.83H366.276V331.188C366.276 331.614 366.337 331.933 366.461 332.146C366.589 332.355 366.751 332.496 366.947 332.568C367.147 332.636 367.358 332.67 367.58 332.67C367.746 332.67 367.882 332.662 367.989 332.645C368.095 332.624 368.18 332.607 368.244 332.594L368.551 333.949C368.449 333.987 368.306 334.026 368.123 334.064C367.94 334.107 367.707 334.128 367.426 334.128C367 334.128 366.582 334.036 366.173 333.853C365.769 333.67 365.432 333.391 365.163 333.016C364.899 332.641 364.767 332.168 364.767 331.597V321.83ZM370.641 334V324.182H372.15V334H370.641ZM371.408 322.545C371.114 322.545 370.861 322.445 370.648 322.245C370.439 322.045 370.335 321.804 370.335 321.523C370.335 321.241 370.439 321.001 370.648 320.8C370.861 320.6 371.114 320.5 371.408 320.5C371.703 320.5 371.954 320.6 372.163 320.8C372.376 321.001 372.482 321.241 372.482 321.523C372.482 321.804 372.376 322.045 372.163 322.245C371.954 322.445 371.703 322.545 371.408 322.545ZM376.421 328.094V334H374.913V324.182H376.37V325.716H376.498C376.728 325.217 377.078 324.817 377.546 324.514C378.015 324.207 378.62 324.054 379.362 324.054C380.027 324.054 380.608 324.19 381.107 324.463C381.605 324.732 381.993 325.141 382.27 325.69C382.547 326.236 382.686 326.926 382.686 327.761V334H381.177V327.864C381.177 327.092 380.977 326.491 380.576 326.061C380.176 325.626 379.626 325.409 378.927 325.409C378.446 325.409 378.015 325.513 377.636 325.722C377.261 325.931 376.965 326.236 376.747 326.636C376.53 327.037 376.421 327.523 376.421 328.094ZM389.405 337.886C388.677 337.886 388.05 337.793 387.526 337.605C387.002 337.422 386.565 337.179 386.216 336.876C385.87 336.578 385.596 336.259 385.391 335.918L386.593 335.074C386.729 335.253 386.902 335.457 387.111 335.688C387.319 335.922 387.605 336.124 387.967 336.295C388.334 336.469 388.813 336.557 389.405 336.557C390.198 336.557 390.852 336.365 391.368 335.982C391.883 335.598 392.141 334.997 392.141 334.179V332.185H392.013C391.902 332.364 391.745 332.585 391.54 332.849C391.34 333.109 391.05 333.342 390.671 333.546C390.296 333.746 389.789 333.847 389.15 333.847C388.357 333.847 387.645 333.659 387.015 333.284C386.388 332.909 385.892 332.364 385.525 331.648C385.163 330.932 384.982 330.062 384.982 329.04C384.982 328.034 385.159 327.158 385.513 326.413C385.866 325.663 386.358 325.083 386.989 324.674C387.62 324.261 388.348 324.054 389.175 324.054C389.814 324.054 390.321 324.161 390.696 324.374C391.076 324.582 391.366 324.821 391.566 325.089C391.77 325.354 391.928 325.571 392.039 325.741H392.192V324.182H393.65V334.281C393.65 335.125 393.458 335.811 393.074 336.339C392.695 336.872 392.184 337.262 391.54 337.509C390.901 337.761 390.189 337.886 389.405 337.886ZM389.354 332.491C389.959 332.491 390.471 332.353 390.888 332.076C391.306 331.799 391.623 331.401 391.841 330.881C392.058 330.361 392.167 329.739 392.167 329.014C392.167 328.307 392.06 327.683 391.847 327.141C391.634 326.6 391.319 326.176 390.901 325.869C390.483 325.562 389.968 325.409 389.354 325.409C388.715 325.409 388.182 325.571 387.756 325.895C387.334 326.219 387.017 326.653 386.804 327.199C386.595 327.744 386.491 328.349 386.491 329.014C386.491 329.696 386.597 330.299 386.81 330.823C387.027 331.343 387.347 331.752 387.769 332.05C388.195 332.344 388.723 332.491 389.354 332.491Z" fill="white"/>
<rect x="201" y="380" width="90" height="90" rx="45" fill="url(#paint7_linear_0_1)"/>
<rect x="201" y="380" width="90" height="90" rx="45" fill="url(#paint8_linear_0_1)" fill-opacity="0.2"/>
<defs>
<filter id="filter0_d_0_1" x="40.1591" y="62.4545" width="33.3068" height="27.5455" filterUnits="userSpaceOnUse" color-interpolation-filters="sRGB">
<feFlood flood-opacity="0" result="BackgroundImageFix"/>
<feColorMatrix in="SourceAlpha" type="matrix" values="0 0 0 0 0 0 0 0 0 0 0 0 0 0 0 0 0 0 127 0" result="hardAlpha"/>
<feOffset dy="5"/>
<feGaussianBlur stdDeviation="2"/>
<feComposite in2="hardAlpha" operator="out"/>
<feColorMatrix type="matrix" values="0 0 0 0 0 0 0 0 0 0 0 0 0 0 0 0 0 0 0.3 0"/>
<feBlend mode="normal" in2="BackgroundImageFix" result="effect1_dropShadow_0_1"/>
<feBlend mode="normal" in="SourceGraphic" in2="effect1_dropShadow_0_1" result="shape"/>
</filter>
<filter id="filter1_d_0_1" x="53.8352" y="53.3636" width="28.7273" height="35.6364" filterUnits="userSpaceOnUse" color-interpolation-filters="sRGB">
<feFlood flood-opacity="0" result="BackgroundImageFix"/>
<feColorMatrix in="SourceAlpha" type="matrix" values="0 0 0 0 0 0 0 0 0 0 0 0 0 0 0 0 0 0 127 0" result="hardAlpha"/>
<feOffset dy="4"/>
<feGaussianBlur stdDeviation="2"/>
<feComposite in2="hardAlpha" operator="out"/>
<feColorMatrix type="matrix" values="0 0 0 0 0 0 0 0 0 0 0 0 0 0 0 0 0 0 0.3 0"/>
<feBlend mode="normal" in2="BackgroundImageFix" result="effect1_dropShadow_0_1"/>
<feBlend mode="normal" in="SourceGraphic" in2="effect1_dropShadow_0_1" result="shape"/>
</filter>
<linearGradient id="paint0_linear_0_1" x1="20.5" y1="1.57818e-06" x2="353.641" y2="528.796" gradientUnits="userSpaceOnUse">
<stop stop-color="#323198" stop-opacity="0.95"/>
<stop offset="0.997917" stop-color="#4F1B80" stop-opacity="0.95"/>
</linearGradient>
<linearGradient id="paint1_linear_0_1" x1="395.985" y1="8.86726" x2="452.031" y2="306.841" gradientUnits="userSpaceOnUse">
<stop stop-color="#7A3EBF"/>
<stop offset="0.577389" stop-color="#A710A4"/>
</linearGradient>
<linearGradient id="paint2_linear_0_1" x1="114.948" y1="234.089" x2="114.255" y2="630.382" gradientUnits="userSpaceOnUse">
<stop stop-color="#2978DA"/>
<stop offset="0.617708" stop-color="#7A3EBF"/>
<stop offset="1" stop-color="#A710A4"/>
</linearGradient>
<linearGradient id="paint3_linear_0_1" x1="268" y1="156.476" x2="158" y2="156.476" gradientUnits="userSpaceOnUse">
<stop offset="0.133333" stop-color="#7A3EBF"/>
<stop offset="0.773958" stop-color="#2978DA"/>
</linearGradient>
<linearGradient id="paint4_linear_0_1" x1="163.238" y1="160.667" x2="262.762" y2="160.667" gradientUnits="userSpaceOnUse">
<stop stop-color="white"/>
<stop offset="1" stop-color="white" stop-opacity="0"/>
</linearGradient>
<linearGradient id="paint5_linear_0_1" x1="395" y1="506" x2="395" y2="536" gradientUnits="userSpaceOnUse">
<stop offset="0.190625" stop-color="#A710A4"/>
<stop offset="0.872917" stop-color="#7936C7"/>
</linearGradient>
<linearGradient id="paint6_linear_0_1" x1="395" y1="506" x2="395" y2="536" gradientUnits="userSpaceOnUse">
<stop offset="0.122917" stop-color="white"/>
<stop offset="1" stop-color="white" stop-opacity="0"/>
</linearGradient>
<linearGradient id="paint7_linear_0_1" x1="201" y1="425" x2="280.5" y2="425" gradientUnits="userSpaceOnUse">
<stop stop-color="#A710A4"/>
<stop offset="1" stop-color="#7936C7"/>
</linearGradient>
<linearGradient id="paint8_linear_0_1" x1="201" y1="425" x2="291" y2="425" gradientUnits="userSpaceOnUse">
<stop offset="0.128125" stop-color="white"/>
<stop offset="1" stop-color="white" stop-opacity="0"/>
</linearGradient>
</defs>
</svg>
