<svg width="451" height="550" viewBox="0 0 451 550" fill="none" xmlns="http://www.w3.org/2000/svg">
<path d="M1 0H451V550H1V0Z" fill="url(#paint0_linear_0_1)" fill-opacity="0.95"/>
<path d="M451 0H229.437C203.83 73.3055 260.779 69.967 292.455 59.1345C313.627 49.19 348.471 46.029 318.462 112.942C288.454 179.854 346.637 195.517 379.48 194.984C396.318 196.05 425.893 207.983 409.488 247.193C393.083 286.403 430.327 299.402 451 301V0Z" fill="url(#paint1_linear_0_1)"/>
<path d="M0.472335 549.366L0.565227 175.741C81.741 147.467 91.4219 235.082 82.2588 279.08C80.8418 296.76 63.7633 325.753 118.676 325.849C175.041 325.948 188.2 391.704 174.863 427.431C171.923 435.306 164.962 458.91 197.422 473.022C232.046 488.074 237.346 529.914 225.008 549.759L0.472335 549.366Z" fill="url(#paint2_linear_0_1)"/>
<path d="M63 91.5C49.469 91.5 38.5 80.531 38.5 67C38.5 53.469 49.469 42.5 63 42.5C76.531 42.5 87.5 53.469 87.5 67C87.5 80.531 76.531 91.5 63 91.5Z" stroke="white"/>
<g filter="url(#filter0_d_0_1)">
<path d="M50.8097 81L45.1591 62.4545H48.1534L52.1619 76.6534H52.3551L56.3153 62.4545H59.358L63.2699 76.6051H63.4631L67.4716 62.4545H70.4659L64.8153 81H62.0142L57.9574 66.7528H57.6676L53.6108 81H50.8097Z" fill="white"/>
</g>
<g filter="url(#filter1_d_0_1)">
<path d="M58.8352 56.3324V53.3636H79.5625V56.3324H70.8722V81H67.5256V56.3324H58.8352Z" fill="white"/>
</g>
<rect x="185" y="76" width="110" height="110" rx="55" fill="url(#paint3_linear_0_1)"/>
<rect x="185" y="76" width="110" height="110" rx="55" fill="url(#paint4_linear_0_1)" fill-opacity="0.24"/>
<rect x="384" y="483" width="30" height="30" rx="15" fill="url(#paint5_linear_0_1)"/>
<rect x="384" y="483" width="30" height="30" rx="15" fill="url(#paint6_linear_0_1)" fill-opacity="0.2"/>
<path d="M130.428 263L121.957 232.455H126.804L132.755 256.109H133.039L139.228 232.455H144.031L150.22 256.124H150.504L156.44 232.455H161.302L152.816 263H148.177L141.749 240.121H141.51L135.082 263H130.428ZM172.764 263.462C170.507 263.462 168.563 262.98 166.932 262.016C165.312 261.041 164.059 259.674 163.174 257.914C162.299 256.144 161.861 254.071 161.861 251.695C161.861 249.348 162.299 247.28 163.174 245.49C164.059 243.7 165.292 242.303 166.873 241.299C168.464 240.295 170.323 239.793 172.451 239.793C173.743 239.793 174.996 240.006 176.209 240.434C177.422 240.862 178.511 241.533 179.476 242.447C180.44 243.362 181.201 244.55 181.758 246.012C182.314 247.464 182.593 249.229 182.593 251.307V252.888H164.382V249.547H178.223C178.223 248.374 177.984 247.335 177.507 246.43C177.03 245.515 176.358 244.794 175.493 244.267C174.638 243.74 173.634 243.477 172.481 243.477C171.228 243.477 170.134 243.785 169.199 244.401C168.275 245.008 167.559 245.803 167.052 246.788C166.555 247.762 166.306 248.821 166.306 249.964V252.575C166.306 254.106 166.574 255.408 167.111 256.482C167.658 257.556 168.419 258.376 169.393 258.943C170.368 259.5 171.506 259.778 172.809 259.778C173.654 259.778 174.425 259.659 175.121 259.42C175.817 259.172 176.418 258.804 176.925 258.317C177.432 257.83 177.82 257.228 178.089 256.512L182.309 257.273C181.971 258.516 181.365 259.604 180.49 260.539C179.625 261.464 178.536 262.185 177.224 262.702C175.921 263.209 174.434 263.462 172.764 263.462ZM192 232.455V263H187.541V232.455H192ZM207.65 263.462C205.432 263.462 203.523 262.96 201.922 261.956C200.331 260.942 199.108 259.545 198.253 257.765C197.398 255.985 196.971 253.947 196.971 251.65C196.971 249.323 197.408 247.27 198.283 245.49C199.158 243.7 200.391 242.303 201.982 241.299C203.573 240.295 205.447 239.793 207.605 239.793C209.345 239.793 210.896 240.116 212.258 240.762C213.621 241.398 214.719 242.293 215.555 243.447C216.4 244.6 216.902 245.947 217.061 247.489H212.721C212.482 246.415 211.935 245.49 211.08 244.714C210.235 243.939 209.101 243.551 207.68 243.551C206.437 243.551 205.348 243.879 204.413 244.536C203.488 245.182 202.768 246.107 202.251 247.31C201.733 248.503 201.475 249.915 201.475 251.545C201.475 253.216 201.729 254.658 202.236 255.871C202.743 257.084 203.459 258.023 204.383 258.69C205.318 259.356 206.417 259.689 207.68 259.689C208.525 259.689 209.29 259.535 209.976 259.227C210.672 258.908 211.254 258.456 211.721 257.869C212.199 257.283 212.532 256.577 212.721 255.751H217.061C216.902 257.233 216.42 258.555 215.614 259.719C214.809 260.882 213.73 261.797 212.378 262.463C211.035 263.129 209.459 263.462 207.65 263.462ZM231.48 263.462C229.332 263.462 227.458 262.97 225.857 261.986C224.256 261.001 223.013 259.624 222.128 257.854C221.243 256.085 220.801 254.016 220.801 251.65C220.801 249.273 221.243 247.195 222.128 245.415C223.013 243.636 224.256 242.254 225.857 241.269C227.458 240.285 229.332 239.793 231.48 239.793C233.627 239.793 235.502 240.285 237.103 241.269C238.703 242.254 239.946 243.636 240.831 245.415C241.716 247.195 242.159 249.273 242.159 251.65C242.159 254.016 241.716 256.085 240.831 257.854C239.946 259.624 238.703 261.001 237.103 261.986C235.502 262.97 233.627 263.462 231.48 263.462ZM231.495 259.719C232.887 259.719 234.04 259.351 234.955 258.615C235.87 257.879 236.546 256.9 236.983 255.677C237.431 254.454 237.654 253.107 237.654 251.635C237.654 250.173 237.431 248.831 236.983 247.608C236.546 246.375 235.87 245.386 234.955 244.64C234.04 243.894 232.887 243.521 231.495 243.521C230.093 243.521 228.929 243.894 228.005 244.64C227.09 245.386 226.409 246.375 225.961 247.608C225.524 248.831 225.305 250.173 225.305 251.635C225.305 253.107 225.524 254.454 225.961 255.677C226.409 256.9 227.09 257.879 228.005 258.615C228.929 259.351 230.093 259.719 231.495 259.719ZM247.137 263V240.091H251.417V243.82H251.7C252.178 242.557 252.958 241.572 254.042 240.866C255.126 240.151 256.423 239.793 257.935 239.793C259.466 239.793 260.749 240.151 261.783 240.866C262.827 241.582 263.597 242.567 264.095 243.82H264.333C264.88 242.597 265.75 241.622 266.943 240.896C268.137 240.161 269.558 239.793 271.209 239.793C273.287 239.793 274.982 240.444 276.295 241.746C277.617 243.049 278.279 245.013 278.279 247.638V263H273.819V248.055C273.819 246.504 273.396 245.381 272.551 244.685C271.706 243.989 270.697 243.641 269.524 243.641C268.072 243.641 266.943 244.088 266.138 244.983C265.333 245.868 264.93 247.006 264.93 248.398V263H260.485V247.772C260.485 246.529 260.097 245.53 259.322 244.774C258.546 244.018 257.537 243.641 256.294 243.641C255.449 243.641 254.669 243.864 253.953 244.312C253.247 244.749 252.675 245.361 252.237 246.146C251.81 246.932 251.596 247.842 251.596 248.876V263H247.137ZM294.129 263.462C291.872 263.462 289.928 262.98 288.298 262.016C286.677 261.041 285.424 259.674 284.539 257.914C283.664 256.144 283.227 254.071 283.227 251.695C283.227 249.348 283.664 247.28 284.539 245.49C285.424 243.7 286.657 242.303 288.238 241.299C289.829 240.295 291.688 239.793 293.816 239.793C295.109 239.793 296.362 240.006 297.575 240.434C298.788 240.862 299.876 241.533 300.841 242.447C301.805 243.362 302.566 244.55 303.123 246.012C303.68 247.464 303.958 249.229 303.958 251.307V252.888H285.747V249.547H299.588C299.588 248.374 299.349 247.335 298.872 246.43C298.395 245.515 297.724 244.794 296.859 244.267C296.004 243.74 294.999 243.477 293.846 243.477C292.593 243.477 291.499 243.785 290.565 244.401C289.64 245.008 288.924 245.803 288.417 246.788C287.92 247.762 287.671 248.821 287.671 249.964V252.575C287.671 254.106 287.94 255.408 288.477 256.482C289.023 257.556 289.784 258.376 290.759 258.943C291.733 259.5 292.871 259.778 294.174 259.778C295.019 259.778 295.79 259.659 296.486 259.42C297.182 259.172 297.783 258.804 298.29 258.317C298.798 257.83 299.185 257.228 299.454 256.512L303.675 257.273C303.337 258.516 302.73 259.604 301.855 260.539C300.99 261.464 299.901 262.185 298.589 262.702C297.286 263.209 295.8 263.462 294.129 263.462Z" fill="white"/>
<path d="M174.392 283.182C174.315 282.534 174.004 282.031 173.459 281.673C172.913 281.315 172.244 281.136 171.451 281.136C170.872 281.136 170.365 281.23 169.93 281.418C169.5 281.605 169.163 281.863 168.92 282.191C168.682 282.519 168.562 282.892 168.562 283.31C168.562 283.659 168.645 283.96 168.812 284.211C168.982 284.458 169.199 284.665 169.464 284.831C169.728 284.993 170.005 285.127 170.294 285.234C170.584 285.336 170.851 285.419 171.093 285.483L172.423 285.841C172.764 285.93 173.143 286.054 173.561 286.212C173.983 286.369 174.385 286.585 174.769 286.857C175.157 287.126 175.476 287.471 175.728 287.893C175.979 288.315 176.105 288.832 176.105 289.446C176.105 290.153 175.919 290.793 175.549 291.364C175.182 291.935 174.645 292.388 173.938 292.725C173.235 293.062 172.38 293.23 171.375 293.23C170.437 293.23 169.625 293.079 168.939 292.776C168.258 292.474 167.721 292.052 167.329 291.511C166.941 290.969 166.721 290.341 166.67 289.625H168.307C168.349 290.119 168.515 290.528 168.805 290.852C169.099 291.172 169.47 291.411 169.917 291.568C170.369 291.722 170.855 291.798 171.375 291.798C171.98 291.798 172.523 291.7 173.005 291.504C173.486 291.304 173.868 291.027 174.149 290.673C174.43 290.315 174.571 289.898 174.571 289.42C174.571 288.986 174.449 288.632 174.206 288.359C173.964 288.087 173.644 287.865 173.248 287.695C172.851 287.524 172.423 287.375 171.963 287.247L170.352 286.787C169.329 286.493 168.52 286.073 167.923 285.528C167.326 284.982 167.028 284.268 167.028 283.386C167.028 282.653 167.226 282.014 167.623 281.469C168.023 280.919 168.56 280.493 169.233 280.19C169.911 279.884 170.667 279.73 171.503 279.73C172.346 279.73 173.096 279.881 173.753 280.184C174.409 280.482 174.929 280.891 175.312 281.411C175.7 281.931 175.905 282.521 175.926 283.182H174.392ZM178.507 293V283.182H180.015V293H178.507ZM179.274 281.545C178.98 281.545 178.726 281.445 178.513 281.245C178.304 281.045 178.2 280.804 178.2 280.523C178.2 280.241 178.304 280.001 178.513 279.8C178.726 279.6 178.98 279.5 179.274 279.5C179.568 279.5 179.819 279.6 180.028 279.8C180.241 280.001 180.348 280.241 180.348 280.523C180.348 280.804 180.241 281.045 180.028 281.245C179.819 281.445 179.568 281.545 179.274 281.545ZM186.741 296.886C186.013 296.886 185.386 296.793 184.862 296.605C184.338 296.422 183.901 296.179 183.552 295.876C183.206 295.578 182.932 295.259 182.727 294.918L183.929 294.074C184.065 294.253 184.238 294.457 184.446 294.688C184.655 294.922 184.941 295.124 185.303 295.295C185.669 295.469 186.149 295.557 186.741 295.557C187.534 295.557 188.188 295.365 188.704 294.982C189.219 294.598 189.477 293.997 189.477 293.179V291.185H189.349C189.238 291.364 189.081 291.585 188.876 291.849C188.676 292.109 188.386 292.342 188.007 292.546C187.632 292.746 187.125 292.847 186.486 292.847C185.693 292.847 184.981 292.659 184.351 292.284C183.724 291.909 183.228 291.364 182.861 290.648C182.499 289.932 182.318 289.062 182.318 288.04C182.318 287.034 182.495 286.158 182.848 285.413C183.202 284.663 183.694 284.083 184.325 283.674C184.956 283.261 185.684 283.054 186.511 283.054C187.15 283.054 187.657 283.161 188.032 283.374C188.412 283.582 188.701 283.821 188.902 284.089C189.106 284.354 189.264 284.571 189.375 284.741H189.528V283.182H190.986V293.281C190.986 294.125 190.794 294.811 190.41 295.339C190.031 295.872 189.52 296.262 188.876 296.509C188.237 296.761 187.525 296.886 186.741 296.886ZM186.69 291.491C187.295 291.491 187.807 291.353 188.224 291.076C188.642 290.799 188.959 290.401 189.177 289.881C189.394 289.361 189.503 288.739 189.503 288.014C189.503 287.307 189.396 286.683 189.183 286.141C188.97 285.6 188.655 285.176 188.237 284.869C187.819 284.562 187.304 284.409 186.69 284.409C186.051 284.409 185.518 284.571 185.092 284.895C184.67 285.219 184.353 285.653 184.14 286.199C183.931 286.744 183.826 287.349 183.826 288.014C183.826 288.696 183.933 289.299 184.146 289.823C184.363 290.343 184.683 290.752 185.105 291.05C185.531 291.344 186.059 291.491 186.69 291.491ZM195.255 287.094V293H193.747V283.182H195.204V284.716H195.332C195.562 284.217 195.912 283.817 196.38 283.514C196.849 283.207 197.454 283.054 198.196 283.054C198.861 283.054 199.442 283.19 199.941 283.463C200.439 283.732 200.827 284.141 201.104 284.69C201.381 285.236 201.52 285.926 201.52 286.761V293H200.011V286.864C200.011 286.092 199.811 285.491 199.41 285.061C199.01 284.626 198.46 284.409 197.761 284.409C197.28 284.409 196.849 284.513 196.47 284.722C196.095 284.931 195.799 285.236 195.581 285.636C195.364 286.037 195.255 286.523 195.255 287.094ZM211.128 279.909V293H209.543V279.909H211.128ZM215.611 287.094V293H214.102V283.182H215.56V284.716H215.688C215.918 284.217 216.267 283.817 216.736 283.514C217.205 283.207 217.81 283.054 218.551 283.054C219.216 283.054 219.798 283.19 220.296 283.463C220.795 283.732 221.183 284.141 221.46 284.69C221.737 285.236 221.875 285.926 221.875 286.761V293H220.367V286.864C220.367 286.092 220.166 285.491 219.766 285.061C219.365 284.626 218.815 284.409 218.117 284.409C217.635 284.409 217.205 284.513 216.825 284.722C216.45 284.931 216.154 285.236 215.937 285.636C215.72 286.037 215.611 286.523 215.611 287.094ZM233.964 283.182V284.46H228.876V283.182H233.964ZM230.359 280.83H231.867V290.188C231.867 290.614 231.929 290.933 232.053 291.146C232.181 291.355 232.343 291.496 232.539 291.568C232.739 291.636 232.95 291.67 233.171 291.67C233.338 291.67 233.474 291.662 233.581 291.645C233.687 291.624 233.772 291.607 233.836 291.594L234.143 292.949C234.041 292.987 233.898 293.026 233.715 293.064C233.532 293.107 233.299 293.128 233.018 293.128C232.592 293.128 232.174 293.036 231.765 292.853C231.36 292.67 231.024 292.391 230.755 292.016C230.491 291.641 230.359 291.168 230.359 290.597V280.83ZM240.116 293.205C239.23 293.205 238.452 292.994 237.783 292.572C237.119 292.15 236.599 291.56 236.224 290.801C235.853 290.043 235.668 289.156 235.668 288.142C235.668 287.119 235.853 286.227 236.224 285.464C236.599 284.701 237.119 284.109 237.783 283.687C238.452 283.265 239.23 283.054 240.116 283.054C241.003 283.054 241.778 283.265 242.443 283.687C243.112 284.109 243.632 284.701 244.003 285.464C244.378 286.227 244.565 287.119 244.565 288.142C244.565 289.156 244.378 290.043 244.003 290.801C243.632 291.56 243.112 292.15 242.443 292.572C241.778 292.994 241.003 293.205 240.116 293.205ZM240.116 291.849C240.79 291.849 241.344 291.677 241.778 291.332C242.213 290.987 242.535 290.533 242.744 289.97C242.952 289.408 243.057 288.798 243.057 288.142C243.057 287.486 242.952 286.874 242.744 286.308C242.535 285.741 242.213 285.283 241.778 284.933C241.344 284.584 240.79 284.409 240.116 284.409C239.443 284.409 238.889 284.584 238.454 284.933C238.02 285.283 237.698 285.741 237.489 286.308C237.28 286.874 237.176 287.486 237.176 288.142C237.176 288.798 237.28 289.408 237.489 289.97C237.698 290.533 238.02 290.987 238.454 291.332C238.889 291.677 239.443 291.849 240.116 291.849ZM255.919 293.205C254.999 293.205 254.206 292.987 253.541 292.553C252.877 292.118 252.365 291.519 252.007 290.756C251.649 289.994 251.47 289.122 251.47 288.142C251.47 287.145 251.653 286.265 252.02 285.502C252.391 284.735 252.906 284.136 253.567 283.706C254.232 283.271 255.007 283.054 255.894 283.054C256.584 283.054 257.206 283.182 257.76 283.438C258.314 283.693 258.768 284.051 259.122 284.511C259.475 284.972 259.695 285.509 259.78 286.122H258.271C258.156 285.675 257.901 285.278 257.504 284.933C257.112 284.584 256.584 284.409 255.919 284.409C255.331 284.409 254.815 284.562 254.372 284.869C253.933 285.172 253.59 285.6 253.343 286.154C253.1 286.704 252.979 287.349 252.979 288.091C252.979 288.849 253.098 289.51 253.337 290.072C253.58 290.635 253.921 291.072 254.359 291.383C254.803 291.694 255.323 291.849 255.919 291.849C256.311 291.849 256.667 291.781 256.987 291.645C257.306 291.509 257.577 291.312 257.798 291.057C258.02 290.801 258.178 290.494 258.271 290.136H259.78C259.695 290.716 259.484 291.238 259.147 291.702C258.815 292.163 258.374 292.529 257.824 292.802C257.278 293.07 256.644 293.205 255.919 293.205ZM265.974 293.205C265.087 293.205 264.31 292.994 263.641 292.572C262.976 292.15 262.456 291.56 262.081 290.801C261.71 290.043 261.525 289.156 261.525 288.142C261.525 287.119 261.71 286.227 262.081 285.464C262.456 284.701 262.976 284.109 263.641 283.687C264.31 283.265 265.087 283.054 265.974 283.054C266.86 283.054 267.636 283.265 268.301 283.687C268.97 284.109 269.489 284.701 269.86 285.464C270.235 286.227 270.423 287.119 270.423 288.142C270.423 289.156 270.235 290.043 269.86 290.801C269.489 291.56 268.97 292.15 268.301 292.572C267.636 292.994 266.86 293.205 265.974 293.205ZM265.974 291.849C266.647 291.849 267.201 291.677 267.636 291.332C268.07 290.987 268.392 290.533 268.601 289.97C268.81 289.408 268.914 288.798 268.914 288.142C268.914 287.486 268.81 286.874 268.601 286.308C268.392 285.741 268.07 285.283 267.636 284.933C267.201 284.584 266.647 284.409 265.974 284.409C265.301 284.409 264.747 284.584 264.312 284.933C263.877 285.283 263.555 285.741 263.347 286.308C263.138 286.874 263.033 287.486 263.033 288.142C263.033 288.798 263.138 289.408 263.347 289.97C263.555 290.533 263.877 290.987 264.312 291.332C264.747 291.677 265.301 291.849 265.974 291.849ZM274.234 287.094V293H272.725V283.182H274.183V284.716H274.311C274.541 284.217 274.89 283.817 275.359 283.514C275.828 283.207 276.433 283.054 277.174 283.054C277.839 283.054 278.421 283.19 278.919 283.463C279.418 283.732 279.806 284.141 280.083 284.69C280.36 285.236 280.498 285.926 280.498 286.761V293H278.99V286.864C278.99 286.092 278.789 285.491 278.389 285.061C277.988 284.626 277.438 284.409 276.74 284.409C276.258 284.409 275.828 284.513 275.448 284.722C275.073 284.931 274.777 285.236 274.56 285.636C274.343 286.037 274.234 286.523 274.234 287.094ZM287.525 283.182V284.46H282.437V283.182H287.525ZM283.919 280.83H285.428V290.188C285.428 290.614 285.49 290.933 285.613 291.146C285.741 291.355 285.903 291.496 286.099 291.568C286.299 291.636 286.51 291.67 286.732 291.67C286.898 291.67 287.035 291.662 287.141 291.645C287.248 291.624 287.333 291.607 287.397 291.594L287.704 292.949C287.601 292.987 287.459 293.026 287.275 293.064C287.092 293.107 286.86 293.128 286.579 293.128C286.152 293.128 285.735 293.036 285.326 292.853C284.921 292.67 284.584 292.391 284.316 292.016C284.052 291.641 283.919 291.168 283.919 290.597V280.83ZM289.794 293V283.182H291.302V293H289.794ZM290.561 281.545C290.267 281.545 290.013 281.445 289.8 281.245C289.591 281.045 289.487 280.804 289.487 280.523C289.487 280.241 289.591 280.001 289.8 279.8C290.013 279.6 290.267 279.5 290.561 279.5C290.855 279.5 291.106 279.6 291.315 279.8C291.528 280.001 291.635 280.241 291.635 280.523C291.635 280.804 291.528 281.045 291.315 281.245C291.106 281.445 290.855 281.545 290.561 281.545ZM295.574 287.094V293H294.065V283.182H295.523V284.716H295.65C295.881 284.217 296.23 283.817 296.699 283.514C297.168 283.207 297.773 283.054 298.514 283.054C299.179 283.054 299.761 283.19 300.259 283.463C300.758 283.732 301.146 284.141 301.422 284.69C301.699 285.236 301.838 285.926 301.838 286.761V293H300.329V286.864C300.329 286.092 300.129 285.491 299.729 285.061C299.328 284.626 298.778 284.409 298.079 284.409C297.598 284.409 297.168 284.513 296.788 284.722C296.413 284.931 296.117 285.236 295.9 285.636C295.682 286.037 295.574 286.523 295.574 287.094ZM310.782 288.986V283.182H312.291V293H310.782V291.338H310.68C310.45 291.837 310.092 292.261 309.606 292.61C309.12 292.955 308.506 293.128 307.765 293.128C307.151 293.128 306.606 292.994 306.129 292.725C305.651 292.452 305.276 292.043 305.004 291.498C304.731 290.948 304.595 290.256 304.595 289.42V283.182H306.103V289.318C306.103 290.034 306.303 290.605 306.704 291.031C307.109 291.457 307.624 291.67 308.251 291.67C308.626 291.67 309.007 291.575 309.395 291.383C309.787 291.191 310.115 290.897 310.379 290.501C310.648 290.104 310.782 289.599 310.782 288.986ZM319.17 293.205C318.224 293.205 317.408 292.996 316.722 292.578C316.04 292.156 315.514 291.568 315.143 290.814C314.777 290.055 314.593 289.173 314.593 288.168C314.593 287.162 314.777 286.276 315.143 285.509C315.514 284.737 316.029 284.136 316.69 283.706C317.355 283.271 318.13 283.054 319.017 283.054C319.528 283.054 320.033 283.139 320.532 283.31C321.03 283.48 321.484 283.757 321.893 284.141C322.302 284.52 322.628 285.023 322.871 285.649C323.114 286.276 323.235 287.047 323.235 287.963V288.602H315.667V287.298H321.701C321.701 286.744 321.59 286.25 321.369 285.815C321.152 285.381 320.84 285.038 320.436 284.786C320.035 284.535 319.562 284.409 319.017 284.409C318.416 284.409 317.896 284.558 317.457 284.857C317.022 285.151 316.688 285.534 316.453 286.007C316.219 286.48 316.102 286.987 316.102 287.528V288.398C316.102 289.139 316.23 289.768 316.485 290.283C316.745 290.795 317.105 291.185 317.566 291.453C318.026 291.717 318.561 291.849 319.17 291.849C319.566 291.849 319.924 291.794 320.244 291.683C320.568 291.568 320.847 291.398 321.081 291.172C321.316 290.942 321.497 290.656 321.625 290.315L323.082 290.724C322.929 291.219 322.671 291.653 322.309 292.028C321.946 292.399 321.499 292.689 320.966 292.898C320.434 293.102 319.835 293.205 319.17 293.205ZM334.581 293.205C333.661 293.205 332.868 292.987 332.203 292.553C331.539 292.118 331.027 291.519 330.669 290.756C330.311 289.994 330.132 289.122 330.132 288.142C330.132 287.145 330.316 286.265 330.682 285.502C331.053 284.735 331.568 284.136 332.229 283.706C332.894 283.271 333.669 283.054 334.556 283.054C335.246 283.054 335.868 283.182 336.422 283.438C336.976 283.693 337.43 284.051 337.784 284.511C338.137 284.972 338.357 285.509 338.442 286.122H336.934C336.818 285.675 336.563 285.278 336.166 284.933C335.774 284.584 335.246 284.409 334.581 284.409C333.993 284.409 333.478 284.562 333.034 284.869C332.595 285.172 332.252 285.6 332.005 286.154C331.762 286.704 331.641 287.349 331.641 288.091C331.641 288.849 331.76 289.51 331.999 290.072C332.242 290.635 332.583 291.072 333.022 291.383C333.465 291.694 333.985 291.849 334.581 291.849C334.973 291.849 335.329 291.781 335.649 291.645C335.968 291.509 336.239 291.312 336.46 291.057C336.682 290.801 336.84 290.494 336.934 290.136H338.442C338.357 290.716 338.146 291.238 337.809 291.702C337.477 292.163 337.036 292.529 336.486 292.802C335.941 293.07 335.306 293.205 334.581 293.205ZM342.156 287.094V293H340.647V279.909H342.156V284.716H342.284C342.514 284.209 342.859 283.806 343.319 283.508C343.784 283.205 344.402 283.054 345.173 283.054C345.842 283.054 346.428 283.188 346.931 283.457C347.434 283.721 347.823 284.128 348.1 284.678C348.382 285.223 348.522 285.918 348.522 286.761V293H347.014V286.864C347.014 286.084 346.811 285.481 346.407 285.055C346.006 284.624 345.45 284.409 344.738 284.409C344.244 284.409 343.801 284.513 343.409 284.722C343.021 284.931 342.714 285.236 342.488 285.636C342.267 286.037 342.156 286.523 342.156 287.094ZM354.171 293.23C353.549 293.23 352.984 293.113 352.477 292.879C351.97 292.64 351.568 292.297 351.269 291.849C350.971 291.398 350.822 290.852 350.822 290.213C350.822 289.651 350.933 289.195 351.154 288.845C351.376 288.491 351.672 288.214 352.043 288.014C352.413 287.814 352.823 287.665 353.27 287.567C353.722 287.464 354.176 287.384 354.631 287.324C355.228 287.247 355.712 287.19 356.082 287.151C356.457 287.109 356.73 287.038 356.901 286.94C357.075 286.842 357.163 286.672 357.163 286.429V286.378C357.163 285.747 356.99 285.257 356.645 284.908C356.304 284.558 355.786 284.384 355.092 284.384C354.372 284.384 353.807 284.541 353.398 284.857C352.989 285.172 352.701 285.509 352.535 285.866L351.103 285.355C351.359 284.759 351.7 284.294 352.126 283.962C352.556 283.625 353.025 283.391 353.532 283.259C354.043 283.122 354.546 283.054 355.041 283.054C355.356 283.054 355.718 283.092 356.127 283.169C356.541 283.241 356.939 283.393 357.323 283.623C357.71 283.853 358.032 284.2 358.288 284.665C358.543 285.129 358.671 285.751 358.671 286.531V293H357.163V291.67H357.086C356.984 291.884 356.813 292.112 356.575 292.354C356.336 292.597 356.019 292.804 355.622 292.974C355.226 293.145 354.742 293.23 354.171 293.23ZM354.401 291.875C354.998 291.875 355.501 291.758 355.91 291.523C356.323 291.289 356.634 290.987 356.843 290.616C357.056 290.245 357.163 289.855 357.163 289.446V288.065C357.099 288.142 356.958 288.212 356.741 288.276C356.528 288.336 356.281 288.389 355.999 288.436C355.722 288.479 355.452 288.517 355.188 288.551C354.928 288.581 354.717 288.607 354.555 288.628C354.163 288.679 353.796 288.762 353.455 288.877C353.119 288.988 352.846 289.156 352.637 289.382C352.433 289.604 352.33 289.906 352.33 290.29C352.33 290.814 352.524 291.21 352.912 291.479C353.304 291.743 353.801 291.875 354.401 291.875ZM365.695 283.182V284.46H360.606V283.182H365.695ZM362.089 280.83H363.598V290.188C363.598 290.614 363.66 290.933 363.783 291.146C363.911 291.355 364.073 291.496 364.269 291.568C364.469 291.636 364.68 291.67 364.902 291.67C365.068 291.67 365.204 291.662 365.311 291.645C365.418 291.624 365.503 291.607 365.567 291.594L365.873 292.949C365.771 292.987 365.628 293.026 365.445 293.064C365.262 293.107 365.03 293.128 364.748 293.128C364.322 293.128 363.905 293.036 363.496 292.853C363.091 292.67 362.754 292.391 362.486 292.016C362.222 291.641 362.089 291.168 362.089 290.597V280.83ZM367.964 293V283.182H369.472V293H367.964ZM368.731 281.545C368.437 281.545 368.183 281.445 367.97 281.245C367.761 281.045 367.657 280.804 367.657 280.523C367.657 280.241 367.761 280.001 367.97 279.8C368.183 279.6 368.437 279.5 368.731 279.5C369.025 279.5 369.276 279.6 369.485 279.8C369.698 280.001 369.805 280.241 369.805 280.523C369.805 280.804 369.698 281.045 369.485 281.245C369.276 281.445 369.025 281.545 368.731 281.545ZM373.744 287.094V293H372.235V283.182H373.693V284.716H373.82C374.051 284.217 374.4 283.817 374.869 283.514C375.337 283.207 375.943 283.054 376.684 283.054C377.349 283.054 377.93 283.19 378.429 283.463C378.928 283.732 379.315 284.141 379.592 284.69C379.869 285.236 380.008 285.926 380.008 286.761V293H378.499V286.864C378.499 286.092 378.299 285.491 377.899 285.061C377.498 284.626 376.948 284.409 376.249 284.409C375.768 284.409 375.337 284.513 374.958 284.722C374.583 284.931 374.287 285.236 374.07 285.636C373.852 286.037 373.744 286.523 373.744 287.094ZM386.728 296.886C385.999 296.886 385.372 296.793 384.848 296.605C384.324 296.422 383.887 296.179 383.538 295.876C383.193 295.578 382.918 295.259 382.713 294.918L383.915 294.074C384.051 294.253 384.224 294.457 384.433 294.688C384.642 294.922 384.927 295.124 385.289 295.295C385.656 295.469 386.135 295.557 386.728 295.557C387.52 295.557 388.174 295.365 388.69 294.982C389.206 294.598 389.463 293.997 389.463 293.179V291.185H389.335C389.225 291.364 389.067 291.585 388.862 291.849C388.662 292.109 388.372 292.342 387.993 292.546C387.618 292.746 387.111 292.847 386.472 292.847C385.679 292.847 384.968 292.659 384.337 292.284C383.71 291.909 383.214 291.364 382.848 290.648C382.485 289.932 382.304 289.062 382.304 288.04C382.304 287.034 382.481 286.158 382.835 285.413C383.188 284.663 383.681 284.083 384.311 283.674C384.942 283.261 385.671 283.054 386.497 283.054C387.137 283.054 387.644 283.161 388.019 283.374C388.398 283.582 388.688 283.821 388.888 284.089C389.093 284.354 389.25 284.571 389.361 284.741H389.514V283.182H390.972V293.281C390.972 294.125 390.78 294.811 390.397 295.339C390.017 295.872 389.506 296.262 388.862 296.509C388.223 296.761 387.512 296.886 386.728 296.886ZM386.676 291.491C387.282 291.491 387.793 291.353 388.21 291.076C388.628 290.799 388.946 290.401 389.163 289.881C389.38 289.361 389.489 288.739 389.489 288.014C389.489 287.307 389.382 286.683 389.169 286.141C388.956 285.6 388.641 285.176 388.223 284.869C387.806 284.562 387.29 284.409 386.676 284.409C386.037 284.409 385.505 284.571 385.078 284.895C384.657 285.219 384.339 285.653 384.126 286.199C383.917 286.744 383.813 287.349 383.813 288.014C383.813 288.696 383.919 289.299 384.132 289.823C384.35 290.343 384.669 290.752 385.091 291.05C385.517 291.344 386.046 291.491 386.676 291.491Z" fill="white"/>
<rect x="198" y="354" width="90" height="90" rx="45" fill="url(#paint7_linear_0_1)"/>
<rect x="198" y="354" width="90" height="90" rx="45" fill="url(#paint8_linear_0_1)" fill-opacity="0.2"/>
<defs>
<filter id="filter0_d_0_1" x="41.1591" y="62.4545" width="33.3068" height="27.5455" filterUnits="userSpaceOnUse" color-interpolation-filters="sRGB">
<feFlood flood-opacity="0" result="BackgroundImageFix"/>
<feColorMatrix in="SourceAlpha" type="matrix" values="0 0 0 0 0 0 0 0 0 0 0 0 0 0 0 0 0 0 127 0" result="hardAlpha"/>
<feOffset dy="5"/>
<feGaussianBlur stdDeviation="2"/>
<feComposite in2="hardAlpha" operator="out"/>
<feColorMatrix type="matrix" values="0 0 0 0 0 0 0 0 0 0 0 0 0 0 0 0 0 0 0.3 0"/>
<feBlend mode="normal" in2="BackgroundImageFix" result="effect1_dropShadow_0_1"/>
<feBlend mode="normal" in="SourceGraphic" in2="effect1_dropShadow_0_1" result="shape"/>
</filter>
<filter id="filter1_d_0_1" x="54.8352" y="53.3636" width="28.7273" height="35.6364" filterUnits="userSpaceOnUse" color-interpolation-filters="sRGB">
<feFlood flood-opacity="0" result="BackgroundImageFix"/>
<feColorMatrix in="SourceAlpha" type="matrix" values="0 0 0 0 0 0 0 0 0 0 0 0 0 0 0 0 0 0 127 0" result="hardAlpha"/>
<feOffset dy="4"/>
<feGaussianBlur stdDeviation="2"/>
<feComposite in2="hardAlpha" operator="out"/>
<feColorMatrix type="matrix" values="0 0 0 0 0 0 0 0 0 0 0 0 0 0 0 0 0 0 0.3 0"/>
<feBlend mode="normal" in2="BackgroundImageFix" result="effect1_dropShadow_0_1"/>
<feBlend mode="normal" in="SourceGraphic" in2="effect1_dropShadow_0_1" result="shape"/>
</filter>
<linearGradient id="paint0_linear_0_1" x1="21.5" y1="1.37777e-06" x2="293.808" y2="495.106" gradientUnits="userSpaceOnUse">
<stop stop-color="#323198" stop-opacity="0.95"/>
<stop offset="0.997917" stop-color="#4F1B80" stop-opacity="0.95"/>
</linearGradient>
<linearGradient id="paint1_linear_0_1" x1="396.985" y1="7.99115" x2="442.797" y2="278.259" gradientUnits="userSpaceOnUse">
<stop stop-color="#7A3EBF"/>
<stop offset="0.577389" stop-color="#A710A4"/>
</linearGradient>
<linearGradient id="paint2_linear_0_1" x1="114.964" y1="176.862" x2="114.312" y2="549.565" gradientUnits="userSpaceOnUse">
<stop stop-color="#2978DA"/>
<stop offset="0.617708" stop-color="#7A3EBF"/>
<stop offset="1" stop-color="#A710A4"/>
</linearGradient>
<linearGradient id="paint3_linear_0_1" x1="295" y1="130.476" x2="185" y2="130.476" gradientUnits="userSpaceOnUse">
<stop offset="0.133333" stop-color="#7A3EBF"/>
<stop offset="0.773958" stop-color="#2978DA"/>
</linearGradient>
<linearGradient id="paint4_linear_0_1" x1="190.238" y1="134.667" x2="289.762" y2="134.667" gradientUnits="userSpaceOnUse">
<stop stop-color="white"/>
<stop offset="1" stop-color="white" stop-opacity="0"/>
</linearGradient>
<linearGradient id="paint5_linear_0_1" x1="399" y1="483" x2="399" y2="513" gradientUnits="userSpaceOnUse">
<stop offset="0.190625" stop-color="#A710A4"/>
<stop offset="0.872917" stop-color="#7936C7"/>
</linearGradient>
<linearGradient id="paint6_linear_0_1" x1="399" y1="483" x2="399" y2="513" gradientUnits="userSpaceOnUse">
<stop offset="0.122917" stop-color="white"/>
<stop offset="1" stop-color="white" stop-opacity="0"/>
</linearGradient>
<linearGradient id="paint7_linear_0_1" x1="198" y1="399" x2="277.5" y2="399" gradientUnits="userSpaceOnUse">
<stop stop-color="#A710A4"/>
<stop offset="1" stop-color="#7936C7"/>
</linearGradient>
<linearGradient id="paint8_linear_0_1" x1="198" y1="399" x2="288" y2="399" gradientUnits="userSpaceOnUse">
<stop offset="0.128125" stop-color="white"/>
<stop offset="1" stop-color="white" stop-opacity="0"/>
</linearGradient>
</defs>
</svg>
