<svg width="451" height="550" viewBox="0 0 451 550" fill="none" xmlns="http://www.w3.org/2000/svg">
<path d="M1 0H451V550H1V0Z" fill="url(#paint0_linear_0_1)" fill-opacity="0.95"/>
<path d="M451 0H229.437C203.83 73.3055 260.779 69.967 292.455 59.1345C313.627 49.19 348.471 46.029 318.462 112.942C288.454 179.854 346.637 195.517 379.48 194.984C396.318 196.05 425.893 207.983 409.488 247.193C393.083 286.403 430.327 299.402 451 301V0Z" fill="url(#paint1_linear_0_1)"/>
<path d="M0.472335 549.366L0.565227 175.741C81.741 147.467 91.4219 235.082 82.2588 279.08C80.8418 296.76 63.7633 325.753 118.676 325.849C175.041 325.948 188.2 391.704 174.863 427.431C171.923 435.306 164.962 458.91 197.422 473.022C232.046 488.074 237.346 529.914 225.008 549.759L0.472335 549.366Z" fill="url(#paint2_linear_0_1)"/>
<path d="M63 91.5C49.469 91.5 38.5 80.531 38.5 67C38.5 53.469 49.469 42.5 63 42.5C76.531 42.5 87.5 53.469 87.5 67C87.5 80.531 76.531 91.5 63 91.5Z" stroke="white"/>
<g filter="url(#filter0_d_0_1)">
<path d="M50.8097 81L45.1591 62.4545H48.1534L52.1619 76.6534H52.3551L56.3153 62.4545H59.358L63.2699 76.6051H63.4631L67.4716 62.4545H70.4659L64.8153 81H62.0142L57.9574 66.7528H57.6676L53.6108 81H50.8097Z" fill="white"/>
</g>
<g filter="url(#filter1_d_0_1)">
<path d="M58.8352 56.3324V53.3636H79.5625V56.3324H70.8722V81H67.5256V56.3324H58.8352Z" fill="white"/>
</g>
<rect x="185" y="76" width="110" height="110" rx="55" fill="url(#paint3_linear_0_1)"/>
<rect x="185" y="76" width="110" height="110" rx="55" fill="url(#paint4_linear_0_1)" fill-opacity="0.24"/>
<rect x="384" y="483" width="30" height="30" rx="15" fill="url(#paint5_linear_0_1)"/>
<rect x="384" y="483" width="30" height="30" rx="15" fill="url(#paint6_linear_0_1)" fill-opacity="0.2"/>
<path d="M130.428 263L121.957 232.455H126.804L132.755 256.109H133.039L139.228 232.455H144.031L150.22 256.124H150.504L156.44 232.455H161.302L152.816 263H148.177L141.749 240.121H141.51L135.082 263H130.428ZM172.764 263.462C170.507 263.462 168.563 262.98 166.932 262.016C165.312 261.041 164.059 259.674 163.174 257.914C162.299 256.144 161.861 254.071 161.861 251.695C161.861 249.348 162.299 247.28 163.174 245.49C164.059 243.7 165.292 242.303 166.873 241.299C168.464 240.295 170.323 239.793 172.451 239.793C173.743 239.793 174.996 240.006 176.209 240.434C177.422 240.862 178.511 241.533 179.476 242.447C180.44 243.362 181.201 244.55 181.758 246.012C182.314 247.464 182.593 249.229 182.593 251.307V252.888H164.382V249.547H178.223C178.223 248.374 177.984 247.335 177.507 246.43C177.03 245.515 176.358 244.794 175.493 244.267C174.638 243.74 173.634 243.477 172.481 243.477C171.228 243.477 170.134 243.785 169.199 244.401C168.275 245.008 167.559 245.803 167.052 246.788C166.555 247.762 166.306 248.821 166.306 249.964V252.575C166.306 254.106 166.574 255.408 167.111 256.482C167.658 257.556 168.419 258.376 169.393 258.943C170.368 259.5 171.506 259.778 172.809 259.778C173.654 259.778 174.425 259.659 175.121 259.42C175.817 259.172 176.418 258.804 176.925 258.317C177.432 257.83 177.82 257.228 178.089 256.512L182.309 257.273C181.971 258.516 181.365 259.604 180.49 260.539C179.625 261.464 178.536 262.185 177.224 262.702C175.921 263.209 174.434 263.462 172.764 263.462ZM192 232.455V263H187.541V232.455H192ZM207.65 263.462C205.432 263.462 203.523 262.96 201.922 261.956C200.331 260.942 199.108 259.545 198.253 257.765C197.398 255.985 196.971 253.947 196.971 251.65C196.971 249.323 197.408 247.27 198.283 245.49C199.158 243.7 200.391 242.303 201.982 241.299C203.573 240.295 205.447 239.793 207.605 239.793C209.345 239.793 210.896 240.116 212.258 240.762C213.621 241.398 214.719 242.293 215.555 243.447C216.4 244.6 216.902 245.947 217.061 247.489H212.721C212.482 246.415 211.935 245.49 211.08 244.714C210.235 243.939 209.101 243.551 207.68 243.551C206.437 243.551 205.348 243.879 204.413 244.536C203.488 245.182 202.768 246.107 202.251 247.31C201.733 248.503 201.475 249.915 201.475 251.545C201.475 253.216 201.729 254.658 202.236 255.871C202.743 257.084 203.459 258.023 204.383 258.69C205.318 259.356 206.417 259.689 207.68 259.689C208.525 259.689 209.29 259.535 209.976 259.227C210.672 258.908 211.254 258.456 211.721 257.869C212.199 257.283 212.532 256.577 212.721 255.751H217.061C216.902 257.233 216.42 258.555 215.614 259.719C214.809 260.882 213.73 261.797 212.378 262.463C211.035 263.129 209.459 263.462 207.65 263.462ZM231.48 263.462C229.332 263.462 227.458 262.97 225.857 261.986C224.256 261.001 223.013 259.624 222.128 257.854C221.243 256.085 220.801 254.016 220.801 251.65C220.801 249.273 221.243 247.195 222.128 245.415C223.013 243.636 224.256 242.254 225.857 241.269C227.458 240.285 229.332 239.793 231.48 239.793C233.627 239.793 235.502 240.285 237.103 241.269C238.703 242.254 239.946 243.636 240.831 245.415C241.716 247.195 242.159 249.273 242.159 251.65C242.159 254.016 241.716 256.085 240.831 257.854C239.946 259.624 238.703 261.001 237.103 261.986C235.502 262.97 233.627 263.462 231.48 263.462ZM231.495 259.719C232.887 259.719 234.04 259.351 234.955 258.615C235.87 257.879 236.546 256.9 236.983 255.677C237.431 254.454 237.654 253.107 237.654 251.635C237.654 250.173 237.431 248.831 236.983 247.608C236.546 246.375 235.87 245.386 234.955 244.64C234.04 243.894 232.887 243.521 231.495 243.521C230.093 243.521 228.929 243.894 228.005 244.64C227.09 245.386 226.409 246.375 225.961 247.608C225.524 248.831 225.305 250.173 225.305 251.635C225.305 253.107 225.524 254.454 225.961 255.677C226.409 256.9 227.09 257.879 228.005 258.615C228.929 259.351 230.093 259.719 231.495 259.719ZM247.137 263V240.091H251.417V243.82H251.7C252.178 242.557 252.958 241.572 254.042 240.866C255.126 240.151 256.423 239.793 257.935 239.793C259.466 239.793 260.749 240.151 261.783 240.866C262.827 241.582 263.597 242.567 264.095 243.82H264.333C264.88 242.597 265.75 241.622 266.943 240.896C268.137 240.161 269.558 239.793 271.209 239.793C273.287 239.793 274.982 240.444 276.295 241.746C277.617 243.049 278.279 245.013 278.279 247.638V263H273.819V248.055C273.819 246.504 273.396 245.381 272.551 244.685C271.706 243.989 270.697 243.641 269.524 243.641C268.072 243.641 266.943 244.088 266.138 244.983C265.333 245.868 264.93 247.006 264.93 248.398V263H260.485V247.772C260.485 246.529 260.097 245.53 259.322 244.774C258.546 244.018 257.537 243.641 256.294 243.641C255.449 243.641 254.669 243.864 253.953 244.312C253.247 244.749 252.675 245.361 252.237 246.146C251.81 246.932 251.596 247.842 251.596 248.876V263H247.137ZM294.129 263.462C291.872 263.462 289.928 262.98 288.298 262.016C286.677 261.041 285.424 259.674 284.539 257.914C283.664 256.144 283.227 254.071 283.227 251.695C283.227 249.348 283.664 247.28 284.539 245.49C285.424 243.7 286.657 242.303 288.238 241.299C289.829 240.295 291.688 239.793 293.816 239.793C295.109 239.793 296.362 240.006 297.575 240.434C298.788 240.862 299.876 241.533 300.841 242.447C301.805 243.362 302.566 244.55 303.123 246.012C303.68 247.464 303.958 249.229 303.958 251.307V252.888H285.747V249.547H299.588C299.588 248.374 299.349 247.335 298.872 246.43C298.395 245.515 297.724 244.794 296.859 244.267C296.004 243.74 294.999 243.477 293.846 243.477C292.593 243.477 291.499 243.785 290.565 244.401C289.64 245.008 288.924 245.803 288.417 246.788C287.92 247.762 287.671 248.821 287.671 249.964V252.575C287.671 254.106 287.94 255.408 288.477 256.482C289.023 257.556 289.784 258.376 290.759 258.943C291.733 259.5 292.871 259.778 294.174 259.778C295.019 259.778 295.79 259.659 296.486 259.42C297.182 259.172 297.783 258.804 298.29 258.317C298.798 257.83 299.185 257.228 299.454 256.512L303.675 257.273C303.337 258.516 302.73 259.604 301.855 260.539C300.99 261.464 299.901 262.185 298.589 262.702C297.286 263.209 295.8 263.462 294.129 263.462Z" fill="white"/>
<path d="M199.714 283.182C199.637 282.534 199.326 282.031 198.781 281.673C198.235 281.315 197.566 281.136 196.774 281.136C196.194 281.136 195.687 281.23 195.252 281.418C194.822 281.605 194.485 281.863 194.242 282.191C194.004 282.519 193.884 282.892 193.884 283.31C193.884 283.659 193.968 283.96 194.134 284.211C194.304 284.458 194.522 284.665 194.786 284.831C195.05 284.993 195.327 285.127 195.617 285.234C195.907 285.336 196.173 285.419 196.416 285.483L197.745 285.841C198.086 285.93 198.465 286.054 198.883 286.212C199.305 286.369 199.708 286.585 200.091 286.857C200.479 287.126 200.799 287.471 201.05 287.893C201.301 288.315 201.427 288.832 201.427 289.446C201.427 290.153 201.242 290.793 200.871 291.364C200.505 291.935 199.968 292.388 199.26 292.725C198.557 293.062 197.703 293.23 196.697 293.23C195.759 293.23 194.948 293.079 194.262 292.776C193.58 292.474 193.043 292.052 192.651 291.511C192.263 290.969 192.044 290.341 191.992 289.625H193.629C193.671 290.119 193.838 290.528 194.127 290.852C194.421 291.172 194.792 291.411 195.24 291.568C195.691 291.722 196.177 291.798 196.697 291.798C197.302 291.798 197.845 291.7 198.327 291.504C198.809 291.304 199.19 291.027 199.471 290.673C199.752 290.315 199.893 289.898 199.893 289.42C199.893 288.986 199.772 288.632 199.529 288.359C199.286 288.087 198.966 287.865 198.57 287.695C198.174 287.524 197.745 287.375 197.285 287.247L195.674 286.787C194.652 286.493 193.842 286.073 193.245 285.528C192.649 284.982 192.35 284.268 192.35 283.386C192.35 282.653 192.549 282.014 192.945 281.469C193.345 280.919 193.882 280.493 194.556 280.19C195.233 279.884 195.99 279.73 196.825 279.73C197.669 279.73 198.419 279.881 199.075 280.184C199.731 280.482 200.251 280.891 200.634 281.411C201.022 281.931 201.227 282.521 201.248 283.182H199.714ZM203.829 293V283.182H205.337V293H203.829ZM204.596 281.545C204.302 281.545 204.048 281.445 203.835 281.245C203.627 281.045 203.522 280.804 203.522 280.523C203.522 280.241 203.627 280.001 203.835 279.8C204.048 279.6 204.302 279.5 204.596 279.5C204.89 279.5 205.141 279.6 205.35 279.8C205.563 280.001 205.67 280.241 205.67 280.523C205.67 280.804 205.563 281.045 205.35 281.245C205.141 281.445 204.89 281.545 204.596 281.545ZM212.063 296.886C211.335 296.886 210.708 296.793 210.184 296.605C209.66 296.422 209.223 296.179 208.874 295.876C208.529 295.578 208.254 295.259 208.049 294.918L209.251 294.074C209.387 294.253 209.56 294.457 209.769 294.688C209.978 294.922 210.263 295.124 210.625 295.295C210.992 295.469 211.471 295.557 212.063 295.557C212.856 295.557 213.51 295.365 214.026 294.982C214.541 294.598 214.799 293.997 214.799 293.179V291.185H214.671C214.561 291.364 214.403 291.585 214.198 291.849C213.998 292.109 213.708 292.342 213.329 292.546C212.954 292.746 212.447 292.847 211.808 292.847C211.015 292.847 210.304 292.659 209.673 292.284C209.046 291.909 208.55 291.364 208.184 290.648C207.821 289.932 207.64 289.062 207.64 288.04C207.64 287.034 207.817 286.158 208.171 285.413C208.524 284.663 209.017 284.083 209.647 283.674C210.278 283.261 211.007 283.054 211.833 283.054C212.473 283.054 212.98 283.161 213.355 283.374C213.734 283.582 214.024 283.821 214.224 284.089C214.429 284.354 214.586 284.571 214.697 284.741H214.85V283.182H216.308V293.281C216.308 294.125 216.116 294.811 215.733 295.339C215.353 295.872 214.842 296.262 214.198 296.509C213.559 296.761 212.848 296.886 212.063 296.886ZM212.012 291.491C212.617 291.491 213.129 291.353 213.546 291.076C213.964 290.799 214.282 290.401 214.499 289.881C214.716 289.361 214.825 288.739 214.825 288.014C214.825 287.307 214.718 286.683 214.505 286.141C214.292 285.6 213.977 285.176 213.559 284.869C213.142 284.562 212.626 284.409 212.012 284.409C211.373 284.409 210.84 284.571 210.414 284.895C209.992 285.219 209.675 285.653 209.462 286.199C209.253 286.744 209.149 287.349 209.149 288.014C209.149 288.696 209.255 289.299 209.468 289.823C209.686 290.343 210.005 290.752 210.427 291.05C210.853 291.344 211.382 291.491 212.012 291.491ZM220.578 287.094V293H219.069V283.182H220.527V284.716H220.654C220.884 284.217 221.234 283.817 221.703 283.514C222.171 283.207 222.777 283.054 223.518 283.054C224.183 283.054 224.764 283.19 225.263 283.463C225.762 283.732 226.149 284.141 226.426 284.69C226.703 285.236 226.842 285.926 226.842 286.761V293H225.333V286.864C225.333 286.092 225.133 285.491 224.733 285.061C224.332 284.626 223.782 284.409 223.083 284.409C222.602 284.409 222.171 284.513 221.792 284.722C221.417 284.931 221.121 285.236 220.904 285.636C220.686 286.037 220.578 286.523 220.578 287.094ZM243.456 279.909H245.042V288.577C245.042 289.472 244.831 290.271 244.409 290.974C243.991 291.673 243.401 292.224 242.638 292.629C241.875 293.03 240.981 293.23 239.954 293.23C238.927 293.23 238.032 293.03 237.269 292.629C236.506 292.224 235.914 291.673 235.492 290.974C235.074 290.271 234.866 289.472 234.866 288.577V279.909H236.451V288.449C236.451 289.088 236.591 289.657 236.873 290.156C237.154 290.65 237.554 291.04 238.074 291.325C238.598 291.607 239.225 291.747 239.954 291.747C240.682 291.747 241.309 291.607 241.833 291.325C242.357 291.04 242.758 290.65 243.035 290.156C243.316 289.657 243.456 289.088 243.456 288.449V279.909ZM248.003 296.682V283.182H249.46V284.741H249.639C249.75 284.571 249.903 284.354 250.099 284.089C250.3 283.821 250.585 283.582 250.956 283.374C251.331 283.161 251.838 283.054 252.477 283.054C253.304 283.054 254.033 283.261 254.663 283.674C255.294 284.087 255.786 284.673 256.14 285.432C256.494 286.19 256.67 287.085 256.67 288.116C256.67 289.156 256.494 290.058 256.14 290.82C255.786 291.579 255.296 292.167 254.67 292.585C254.043 292.998 253.321 293.205 252.503 293.205C251.872 293.205 251.367 293.1 250.988 292.891C250.609 292.678 250.317 292.437 250.112 292.169C249.908 291.896 249.75 291.67 249.639 291.491H249.511V296.682H248.003ZM249.486 288.091C249.486 288.832 249.594 289.487 249.812 290.053C250.029 290.616 250.347 291.057 250.764 291.376C251.182 291.692 251.693 291.849 252.298 291.849C252.929 291.849 253.455 291.683 253.877 291.351C254.303 291.014 254.623 290.562 254.836 289.996C255.053 289.425 255.162 288.79 255.162 288.091C255.162 287.401 255.055 286.778 254.842 286.224C254.633 285.666 254.316 285.225 253.89 284.901C253.468 284.573 252.937 284.409 252.298 284.409C251.685 284.409 251.169 284.565 250.751 284.876C250.334 285.183 250.018 285.613 249.805 286.167C249.592 286.717 249.486 287.358 249.486 288.091ZM268.304 283.182V284.46H263.216V283.182H268.304ZM264.699 280.83H266.207V290.188C266.207 290.614 266.269 290.933 266.393 291.146C266.521 291.355 266.682 291.496 266.878 291.568C267.079 291.636 267.29 291.67 267.511 291.67C267.677 291.67 267.814 291.662 267.92 291.645C268.027 291.624 268.112 291.607 268.176 291.594L268.483 292.949C268.381 292.987 268.238 293.026 268.055 293.064C267.871 293.107 267.639 293.128 267.358 293.128C266.932 293.128 266.514 293.036 266.105 292.853C265.7 292.67 265.364 292.391 265.095 292.016C264.831 291.641 264.699 291.168 264.699 290.597V280.83ZM274.456 293.205C273.57 293.205 272.792 292.994 272.123 292.572C271.458 292.15 270.938 291.56 270.563 290.801C270.193 290.043 270.007 289.156 270.007 288.142C270.007 287.119 270.193 286.227 270.563 285.464C270.938 284.701 271.458 284.109 272.123 283.687C272.792 283.265 273.57 283.054 274.456 283.054C275.343 283.054 276.118 283.265 276.783 283.687C277.452 284.109 277.972 284.701 278.343 285.464C278.718 286.227 278.905 287.119 278.905 288.142C278.905 289.156 278.718 290.043 278.343 290.801C277.972 291.56 277.452 292.15 276.783 292.572C276.118 292.994 275.343 293.205 274.456 293.205ZM274.456 291.849C275.13 291.849 275.684 291.677 276.118 291.332C276.553 290.987 276.875 290.533 277.083 289.97C277.292 289.408 277.397 288.798 277.397 288.142C277.397 287.486 277.292 286.874 277.083 286.308C276.875 285.741 276.553 285.283 276.118 284.933C275.684 284.584 275.13 284.409 274.456 284.409C273.783 284.409 273.229 284.584 272.794 284.933C272.36 285.283 272.038 285.741 271.829 286.308C271.62 286.874 271.516 287.486 271.516 288.142C271.516 288.798 271.62 289.408 271.829 289.97C272.038 290.533 272.36 290.987 272.794 291.332C273.229 291.677 273.783 291.849 274.456 291.849ZM293.225 285.381L291.87 285.764C291.785 285.538 291.659 285.319 291.493 285.106C291.331 284.888 291.109 284.71 290.828 284.569C290.547 284.428 290.187 284.358 289.748 284.358C289.147 284.358 288.646 284.496 288.245 284.773C287.849 285.046 287.651 285.393 287.651 285.815C287.651 286.19 287.787 286.487 288.06 286.704C288.333 286.921 288.759 287.102 289.339 287.247L290.796 287.605C291.674 287.818 292.328 288.144 292.758 288.583C293.189 289.018 293.404 289.578 293.404 290.264C293.404 290.827 293.242 291.33 292.918 291.773C292.598 292.216 292.151 292.565 291.576 292.821C291 293.077 290.331 293.205 289.569 293.205C288.567 293.205 287.738 292.987 287.082 292.553C286.426 292.118 286.01 291.483 285.836 290.648L287.267 290.29C287.404 290.818 287.662 291.214 288.041 291.479C288.424 291.743 288.925 291.875 289.543 291.875C290.246 291.875 290.804 291.726 291.218 291.428C291.635 291.125 291.844 290.763 291.844 290.341C291.844 290 291.725 289.714 291.486 289.484C291.248 289.25 290.881 289.075 290.387 288.96L288.75 288.577C287.851 288.364 287.191 288.033 286.769 287.586C286.351 287.134 286.142 286.57 286.142 285.892C286.142 285.338 286.298 284.848 286.609 284.422C286.924 283.996 287.353 283.661 287.894 283.418C288.439 283.175 289.057 283.054 289.748 283.054C290.719 283.054 291.482 283.267 292.036 283.693C292.594 284.119 292.991 284.682 293.225 285.381ZM299.945 283.182V284.46H294.856V283.182H299.945ZM296.339 280.83H297.848V290.188C297.848 290.614 297.91 290.933 298.033 291.146C298.161 291.355 298.323 291.496 298.519 291.568C298.719 291.636 298.93 291.67 299.152 291.67C299.318 291.67 299.454 291.662 299.561 291.645C299.668 291.624 299.753 291.607 299.817 291.594L300.123 292.949C300.021 292.987 299.878 293.026 299.695 293.064C299.512 293.107 299.28 293.128 298.998 293.128C298.572 293.128 298.155 293.036 297.746 292.853C297.341 292.67 297.004 292.391 296.736 292.016C296.472 291.641 296.339 291.168 296.339 290.597V280.83ZM305.103 293.23C304.481 293.23 303.916 293.113 303.409 292.879C302.902 292.64 302.499 292.297 302.201 291.849C301.903 291.398 301.753 290.852 301.753 290.213C301.753 289.651 301.864 289.195 302.086 288.845C302.307 288.491 302.604 288.214 302.974 288.014C303.345 287.814 303.754 287.665 304.202 287.567C304.653 287.464 305.107 287.384 305.563 287.324C306.16 287.247 306.643 287.19 307.014 287.151C307.389 287.109 307.662 287.038 307.832 286.94C308.007 286.842 308.094 286.672 308.094 286.429V286.378C308.094 285.747 307.922 285.257 307.577 284.908C307.236 284.558 306.718 284.384 306.023 284.384C305.303 284.384 304.739 284.541 304.329 284.857C303.92 285.172 303.633 285.509 303.467 285.866L302.035 285.355C302.29 284.759 302.631 284.294 303.057 283.962C303.488 283.625 303.957 283.391 304.464 283.259C304.975 283.122 305.478 283.054 305.972 283.054C306.288 283.054 306.65 283.092 307.059 283.169C307.472 283.241 307.871 283.393 308.254 283.623C308.642 283.853 308.964 284.2 309.219 284.665C309.475 285.129 309.603 285.751 309.603 286.531V293H308.094V291.67H308.018C307.915 291.884 307.745 292.112 307.506 292.354C307.268 292.597 306.95 292.804 306.554 292.974C306.158 293.145 305.674 293.23 305.103 293.23ZM305.333 291.875C305.93 291.875 306.432 291.758 306.842 291.523C307.255 291.289 307.566 290.987 307.775 290.616C307.988 290.245 308.094 289.855 308.094 289.446V288.065C308.03 288.142 307.89 288.212 307.672 288.276C307.459 288.336 307.212 288.389 306.931 288.436C306.654 288.479 306.383 288.517 306.119 288.551C305.859 288.581 305.648 288.607 305.486 288.628C305.094 288.679 304.728 288.762 304.387 288.877C304.05 288.988 303.778 289.156 303.569 289.382C303.364 289.604 303.262 289.906 303.262 290.29C303.262 290.814 303.456 291.21 303.844 291.479C304.236 291.743 304.732 291.875 305.333 291.875ZM312.356 293V283.182H313.814V284.665H313.916C314.095 284.179 314.419 283.785 314.888 283.482C315.356 283.18 315.885 283.028 316.473 283.028C316.584 283.028 316.722 283.031 316.888 283.035C317.054 283.039 317.18 283.045 317.265 283.054V284.588C317.214 284.575 317.097 284.556 316.914 284.531C316.735 284.501 316.545 284.486 316.345 284.486C315.868 284.486 315.441 284.586 315.066 284.786C314.696 284.982 314.402 285.255 314.184 285.604C313.971 285.95 313.865 286.344 313.865 286.787V293H312.356ZM323.939 283.182V284.46H318.851V283.182H323.939ZM320.334 280.83H321.842V290.188C321.842 290.614 321.904 290.933 322.027 291.146C322.155 291.355 322.317 291.496 322.513 291.568C322.714 291.636 322.924 291.67 323.146 291.67C323.312 291.67 323.449 291.662 323.555 291.645C323.662 291.624 323.747 291.607 323.811 291.594L324.118 292.949C324.015 292.987 323.873 293.026 323.689 293.064C323.506 293.107 323.274 293.128 322.993 293.128C322.566 293.128 322.149 293.036 321.74 292.853C321.335 292.67 320.998 292.391 320.73 292.016C320.466 291.641 320.334 291.168 320.334 290.597V280.83ZM335.259 293.205C334.339 293.205 333.546 292.987 332.881 292.553C332.216 292.118 331.705 291.519 331.347 290.756C330.989 289.994 330.81 289.122 330.81 288.142C330.81 287.145 330.993 286.265 331.36 285.502C331.731 284.735 332.246 284.136 332.907 283.706C333.571 283.271 334.347 283.054 335.233 283.054C335.924 283.054 336.546 283.182 337.1 283.438C337.654 283.693 338.108 284.051 338.461 284.511C338.815 284.972 339.035 285.509 339.12 286.122H337.611C337.496 285.675 337.241 285.278 336.844 284.933C336.452 284.584 335.924 284.409 335.259 284.409C334.671 284.409 334.155 284.562 333.712 284.869C333.273 285.172 332.93 285.6 332.683 286.154C332.44 286.704 332.319 287.349 332.319 288.091C332.319 288.849 332.438 289.51 332.677 290.072C332.919 290.635 333.26 291.072 333.699 291.383C334.142 291.694 334.662 291.849 335.259 291.849C335.651 291.849 336.007 291.781 336.326 291.645C336.646 291.509 336.917 291.312 337.138 291.057C337.36 290.801 337.517 290.494 337.611 290.136H339.12C339.035 290.716 338.824 291.238 338.487 291.702C338.155 292.163 337.714 292.529 337.164 292.802C336.618 293.07 335.983 293.205 335.259 293.205ZM342.834 287.094V293H341.325V279.909H342.834V284.716H342.961C343.191 284.209 343.537 283.806 343.997 283.508C344.461 283.205 345.079 283.054 345.851 283.054C346.52 283.054 347.106 283.188 347.608 283.457C348.111 283.721 348.501 284.128 348.778 284.678C349.059 285.223 349.2 285.918 349.2 286.761V293H347.691V286.864C347.691 286.084 347.489 285.481 347.084 285.055C346.684 284.624 346.128 284.409 345.416 284.409C344.922 284.409 344.478 284.513 344.086 284.722C343.699 284.931 343.392 285.236 343.166 285.636C342.944 286.037 342.834 286.523 342.834 287.094ZM354.849 293.23C354.227 293.23 353.662 293.113 353.155 292.879C352.648 292.64 352.245 292.297 351.947 291.849C351.649 291.398 351.5 290.852 351.5 290.213C351.5 289.651 351.61 289.195 351.832 288.845C352.054 288.491 352.35 288.214 352.72 288.014C353.091 287.814 353.5 287.665 353.948 287.567C354.399 287.464 354.853 287.384 355.309 287.324C355.906 287.247 356.389 287.19 356.76 287.151C357.135 287.109 357.408 287.038 357.578 286.94C357.753 286.842 357.84 286.672 357.84 286.429V286.378C357.84 285.747 357.668 285.257 357.323 284.908C356.982 284.558 356.464 284.384 355.769 284.384C355.049 284.384 354.485 284.541 354.076 284.857C353.666 285.172 353.379 285.509 353.213 285.866L351.781 285.355C352.036 284.759 352.377 284.294 352.804 283.962C353.234 283.625 353.703 283.391 354.21 283.259C354.721 283.122 355.224 283.054 355.718 283.054C356.034 283.054 356.396 283.092 356.805 283.169C357.218 283.241 357.617 283.393 358 283.623C358.388 283.853 358.71 284.2 358.965 284.665C359.221 285.129 359.349 285.751 359.349 286.531V293H357.84V291.67H357.764C357.661 291.884 357.491 292.112 357.252 292.354C357.014 292.597 356.696 292.804 356.3 292.974C355.904 293.145 355.42 293.23 354.849 293.23ZM355.079 291.875C355.676 291.875 356.179 291.758 356.588 291.523C357.001 291.289 357.312 290.987 357.521 290.616C357.734 290.245 357.84 289.855 357.84 289.446V288.065C357.777 288.142 357.636 288.212 357.419 288.276C357.206 288.336 356.958 288.389 356.677 288.436C356.4 288.479 356.13 288.517 355.865 288.551C355.605 288.581 355.394 288.607 355.233 288.628C354.84 288.679 354.474 288.762 354.133 288.877C353.796 288.988 353.524 289.156 353.315 289.382C353.11 289.604 353.008 289.906 353.008 290.29C353.008 290.814 353.202 291.21 353.59 291.479C353.982 291.743 354.478 291.875 355.079 291.875ZM366.372 283.182V284.46H361.284V283.182H366.372ZM362.767 280.83H364.276V290.188C364.276 290.614 364.337 290.933 364.461 291.146C364.589 291.355 364.751 291.496 364.947 291.568C365.147 291.636 365.358 291.67 365.58 291.67C365.746 291.67 365.882 291.662 365.989 291.645C366.095 291.624 366.18 291.607 366.244 291.594L366.551 292.949C366.449 292.987 366.306 293.026 366.123 293.064C365.94 293.107 365.707 293.128 365.426 293.128C365 293.128 364.582 293.036 364.173 292.853C363.769 292.67 363.432 292.391 363.163 292.016C362.899 291.641 362.767 291.168 362.767 290.597V280.83ZM368.641 293V283.182H370.15V293H368.641ZM369.408 281.545C369.114 281.545 368.861 281.445 368.648 281.245C368.439 281.045 368.335 280.804 368.335 280.523C368.335 280.241 368.439 280.001 368.648 279.8C368.861 279.6 369.114 279.5 369.408 279.5C369.703 279.5 369.954 279.6 370.163 279.8C370.376 280.001 370.482 280.241 370.482 280.523C370.482 280.804 370.376 281.045 370.163 281.245C369.954 281.445 369.703 281.545 369.408 281.545ZM374.421 287.094V293H372.913V283.182H374.37V284.716H374.498C374.728 284.217 375.078 283.817 375.546 283.514C376.015 283.207 376.62 283.054 377.362 283.054C378.027 283.054 378.608 283.19 379.107 283.463C379.605 283.732 379.993 284.141 380.27 284.69C380.547 285.236 380.686 285.926 380.686 286.761V293H379.177V286.864C379.177 286.092 378.977 285.491 378.576 285.061C378.176 284.626 377.626 284.409 376.927 284.409C376.446 284.409 376.015 284.513 375.636 284.722C375.261 284.931 374.965 285.236 374.747 285.636C374.53 286.037 374.421 286.523 374.421 287.094ZM387.405 296.886C386.677 296.886 386.05 296.793 385.526 296.605C385.002 296.422 384.565 296.179 384.216 295.876C383.87 295.578 383.596 295.259 383.391 294.918L384.593 294.074C384.729 294.253 384.902 294.457 385.111 294.688C385.319 294.922 385.605 295.124 385.967 295.295C386.334 295.469 386.813 295.557 387.405 295.557C388.198 295.557 388.852 295.365 389.368 294.982C389.883 294.598 390.141 293.997 390.141 293.179V291.185H390.013C389.902 291.364 389.745 291.585 389.54 291.849C389.34 292.109 389.05 292.342 388.671 292.546C388.296 292.746 387.789 292.847 387.15 292.847C386.357 292.847 385.645 292.659 385.015 292.284C384.388 291.909 383.892 291.364 383.525 290.648C383.163 289.932 382.982 289.062 382.982 288.04C382.982 287.034 383.159 286.158 383.513 285.413C383.866 284.663 384.358 284.083 384.989 283.674C385.62 283.261 386.348 283.054 387.175 283.054C387.814 283.054 388.321 283.161 388.696 283.374C389.076 283.582 389.366 283.821 389.566 284.089C389.77 284.354 389.928 284.571 390.039 284.741H390.192V283.182H391.65V293.281C391.65 294.125 391.458 294.811 391.074 295.339C390.695 295.872 390.184 296.262 389.54 296.509C388.901 296.761 388.189 296.886 387.405 296.886ZM387.354 291.491C387.959 291.491 388.471 291.353 388.888 291.076C389.306 290.799 389.623 290.401 389.841 289.881C390.058 289.361 390.167 288.739 390.167 288.014C390.167 287.307 390.06 286.683 389.847 286.141C389.634 285.6 389.319 285.176 388.901 284.869C388.483 284.562 387.968 284.409 387.354 284.409C386.715 284.409 386.182 284.571 385.756 284.895C385.334 285.219 385.017 285.653 384.804 286.199C384.595 286.744 384.491 287.349 384.491 288.014C384.491 288.696 384.597 289.299 384.81 289.823C385.027 290.343 385.347 290.752 385.769 291.05C386.195 291.344 386.723 291.491 387.354 291.491Z" fill="white"/>
<rect x="198" y="354" width="90" height="90" rx="45" fill="url(#paint7_linear_0_1)"/>
<rect x="198" y="354" width="90" height="90" rx="45" fill="url(#paint8_linear_0_1)" fill-opacity="0.2"/>
<defs>
<filter id="filter0_d_0_1" x="41.1591" y="62.4545" width="33.3068" height="27.5455" filterUnits="userSpaceOnUse" color-interpolation-filters="sRGB">
<feFlood flood-opacity="0" result="BackgroundImageFix"/>
<feColorMatrix in="SourceAlpha" type="matrix" values="0 0 0 0 0 0 0 0 0 0 0 0 0 0 0 0 0 0 127 0" result="hardAlpha"/>
<feOffset dy="5"/>
<feGaussianBlur stdDeviation="2"/>
<feComposite in2="hardAlpha" operator="out"/>
<feColorMatrix type="matrix" values="0 0 0 0 0 0 0 0 0 0 0 0 0 0 0 0 0 0 0.3 0"/>
<feBlend mode="normal" in2="BackgroundImageFix" result="effect1_dropShadow_0_1"/>
<feBlend mode="normal" in="SourceGraphic" in2="effect1_dropShadow_0_1" result="shape"/>
</filter>
<filter id="filter1_d_0_1" x="54.8352" y="53.3636" width="28.7273" height="35.6364" filterUnits="userSpaceOnUse" color-interpolation-filters="sRGB">
<feFlood flood-opacity="0" result="BackgroundImageFix"/>
<feColorMatrix in="SourceAlpha" type="matrix" values="0 0 0 0 0 0 0 0 0 0 0 0 0 0 0 0 0 0 127 0" result="hardAlpha"/>
<feOffset dy="4"/>
<feGaussianBlur stdDeviation="2"/>
<feComposite in2="hardAlpha" operator="out"/>
<feColorMatrix type="matrix" values="0 0 0 0 0 0 0 0 0 0 0 0 0 0 0 0 0 0 0.3 0"/>
<feBlend mode="normal" in2="BackgroundImageFix" result="effect1_dropShadow_0_1"/>
<feBlend mode="normal" in="SourceGraphic" in2="effect1_dropShadow_0_1" result="shape"/>
</filter>
<linearGradient id="paint0_linear_0_1" x1="21.5" y1="1.37777e-06" x2="293.808" y2="495.106" gradientUnits="userSpaceOnUse">
<stop stop-color="#323198" stop-opacity="0.95"/>
<stop offset="0.997917" stop-color="#4F1B80" stop-opacity="0.95"/>
</linearGradient>
<linearGradient id="paint1_linear_0_1" x1="396.985" y1="7.99115" x2="442.797" y2="278.259" gradientUnits="userSpaceOnUse">
<stop stop-color="#7A3EBF"/>
<stop offset="0.577389" stop-color="#A710A4"/>
</linearGradient>
<linearGradient id="paint2_linear_0_1" x1="114.964" y1="176.862" x2="114.312" y2="549.565" gradientUnits="userSpaceOnUse">
<stop stop-color="#2978DA"/>
<stop offset="0.617708" stop-color="#7A3EBF"/>
<stop offset="1" stop-color="#A710A4"/>
</linearGradient>
<linearGradient id="paint3_linear_0_1" x1="295" y1="130.476" x2="185" y2="130.476" gradientUnits="userSpaceOnUse">
<stop offset="0.133333" stop-color="#7A3EBF"/>
<stop offset="0.773958" stop-color="#2978DA"/>
</linearGradient>
<linearGradient id="paint4_linear_0_1" x1="190.238" y1="134.667" x2="289.762" y2="134.667" gradientUnits="userSpaceOnUse">
<stop stop-color="white"/>
<stop offset="1" stop-color="white" stop-opacity="0"/>
</linearGradient>
<linearGradient id="paint5_linear_0_1" x1="399" y1="483" x2="399" y2="513" gradientUnits="userSpaceOnUse">
<stop offset="0.190625" stop-color="#A710A4"/>
<stop offset="0.872917" stop-color="#7936C7"/>
</linearGradient>
<linearGradient id="paint6_linear_0_1" x1="399" y1="483" x2="399" y2="513" gradientUnits="userSpaceOnUse">
<stop offset="0.122917" stop-color="white"/>
<stop offset="1" stop-color="white" stop-opacity="0"/>
</linearGradient>
<linearGradient id="paint7_linear_0_1" x1="198" y1="399" x2="277.5" y2="399" gradientUnits="userSpaceOnUse">
<stop stop-color="#A710A4"/>
<stop offset="1" stop-color="#7936C7"/>
</linearGradient>
<linearGradient id="paint8_linear_0_1" x1="198" y1="399" x2="288" y2="399" gradientUnits="userSpaceOnUse">
<stop offset="0.128125" stop-color="white"/>
<stop offset="1" stop-color="white" stop-opacity="0"/>
</linearGradient>
</defs>
</svg>
